<?xml version="1.0" encoding="utf-8"?>
<!-- Generator: Adobe Illustrator 16.0.0, SVG Export Plug-In . SVG Version: 6.00 Build 0)  -->
<!DOCTYPE svg PUBLIC "-//W3C//DTD SVG 1.1 Tiny//EN" "http://www.w3.org/Graphics/SVG/1.1/DTD/svg11-tiny.dtd">
<svg version="1.1" baseProfile="tiny" id="Layer_1" xmlns="http://www.w3.org/2000/svg" xmlns:xlink="http://www.w3.org/1999/xlink"
	 x="0px" y="0px" width="62.353px" height="77.375px" viewBox="0 0 62.353 77.375" xml:space="preserve">
<path fill="#74A3A8" d="M16.79,16.79c0,0,5.223-4.354,9.338-4.354c4.116,0,7.452,4.354,7.452,4.354s-3.335,4.354-7.452,4.354
	C22.013,21.144,16.79,16.79,16.79,16.79"/>
<path fill="#74A3A8" d="M16.79,16.79c0,0,4.354,5.222,4.354,9.338S16.79,33.58,16.79,33.58s-4.354-3.336-4.354-7.452
	S16.79,16.79,16.79,16.79"/>
<path fill="#74A3A8" d="M16.79,16.79c0,0-5.222,4.354-9.338,4.354S0,16.79,0,16.79s3.336-4.354,7.452-4.354S16.79,16.79,16.79,16.79
	"/>
<path fill="#74A3A8" d="M16.79,16.79c0,0-4.354-5.222-4.354-9.338S16.79,0,16.79,0s4.354,3.336,4.354,7.452S16.79,16.79,16.79,16.79
	"/>
<path fill="none" stroke="#75A3A8" stroke-miterlimit="10" d="M32.791,76.79c7.332-1.588,20.66-7.686,14.336-17.488
	c-5.215-8.08-23.792-0.531-19.162,6.214c7.169,10.45,21.923-13.195,17.765-22.689C40.681,31.292,26.099,24.552,16.79,16.79"/>
<path fill="#74A3A8" d="M46.13,43.837c0,0,9.189,0.834,13.139,4.784c3.953,3.95,2.977,11.332,2.977,11.332
	s-7.383,0.976-11.332-2.977C46.964,53.026,46.13,43.837,46.13,43.837"/>
<path fill="#74A3A8" d="M46.13,43.837c0,0-0.834,9.189-4.785,13.14c-3.949,3.952-11.332,2.977-11.332,2.977
	s-0.977-7.382,2.976-11.332C36.939,44.671,46.13,43.837,46.13,43.837"/>
<path fill="#74A3A8" d="M46.13,43.837c0,0-9.191-0.834-13.141-4.784c-3.953-3.95-2.976-11.332-2.976-11.332
	s7.382-0.976,11.332,2.975C45.296,34.646,46.13,43.837,46.13,43.837"/>
<path fill="#74A3A8" d="M46.13,43.837c0,0,0.834-9.19,4.783-13.142c3.949-3.95,11.332-2.975,11.332-2.975s0.977,7.382-2.977,11.332
	C55.32,43.003,46.13,43.837,46.13,43.837"/>
</svg>
