<?xml version="1.0" encoding="utf-8"?>
<!-- Generator: Adobe Illustrator 17.0.0, SVG Export Plug-In . SVG Version: 6.00 Build 0)  -->
<!DOCTYPE svg PUBLIC "-//W3C//DTD SVG 1.1//EN" "http://www.w3.org/Graphics/SVG/1.1/DTD/svg11.dtd">
<svg version="1.1" id="Layer_1" xmlns="http://www.w3.org/2000/svg" xmlns:xlink="http://www.w3.org/1999/xlink" x="0px" y="0px"
	 width="595.28px" height="841.89px" viewBox="0 0 595.28 841.89" enable-background="new 0 0 595.28 841.89" xml:space="preserve">
<g>
	<g>
		<g>
			<path fill="#F6F4CA" d="M301.433,213.305c-12.159,0.097,0.584,91.237,0.584,91.237S313.689,213.208,301.433,213.305z"/>
		</g>
		<g>
			<path fill="#F6F4CA" d="M302.017,808.585c12.158-0.097-0.584-91.237-0.584-91.237S289.859,808.682,302.017,808.585z"/>
		</g>
		<g>
			<path fill="#F6F4CA" d="M0,509.972c0.097,12.158,91.237-0.584,91.237-0.584S-0.097,497.717,0,509.972z"/>
		</g>
		<g>
			<path fill="#F6F4CA" d="M88.903,723.281c8.657,8.462,64.197-64.878,64.197-64.878S80.246,714.721,88.903,723.281z"/>
		</g>
		<g>
			<path fill="#F6F4CA" d="M507.933,721.433c8.462-8.657-64.878-64.197-64.878-64.197S499.471,730.09,507.933,721.433z"/>
		</g>
		<g>
			<path fill="#F6F4CA" d="M595.28,509.389c-0.097-12.158-91.237,0.584-91.237,0.584S595.377,521.547,595.28,509.389z"/>
		</g>
		<g>
			<path fill="#F6F4CA" d="M504.529,296.955c-8.657-8.462-64.197,64.878-64.197,64.878S513.186,305.612,504.529,296.955z"/>
		</g>
		<g>
			<path fill="#F6F4CA" d="M93.085,294.816c8.657-8.462,64.197,64.878,64.197,64.878S84.429,303.278,93.085,294.816z"/>
		</g>
	</g>
	<g>
		<g>
			<path fill="#363537" d="M568.629,630.585c4.669-11.186-84.234-35.406-84.234-35.406S563.96,641.77,568.629,630.585z"/>
		</g>
		<g>
			<path fill="#363537" d="M21.302,396.461c-4.669,11.186,84.234,35.406,84.234,35.406S25.971,385.08,21.302,396.461z"/>
		</g>
		<g>
			<path fill="#363537" d="M414.751,236.552c-11.186-4.669-35.406,84.234-35.406,84.234S426.034,241.221,414.751,236.552z"/>
		</g>
		<g>
			<path fill="#363537" d="M183.642,234.12c-11.38,4.572,34.433,84.623,34.433,84.623S195.022,229.646,183.642,234.12z"/>
		</g>
		<g>
			<path fill="#363537" d="M20.134,620.08c4.572,11.38,84.623-34.433,84.623-34.433S15.563,608.894,20.134,620.08z"/>
		</g>
		<g>
			<path fill="#363537" d="M180.529,783.879c11.186,4.669,35.406-84.234,35.406-84.234S169.344,779.113,180.529,783.879z"/>
		</g>
		<g>
			<path fill="#363537" d="M411.638,784.171c11.38-4.572-34.433-84.623-34.433-84.623S400.355,788.742,411.638,784.171z"/>
		</g>
		<g>
			<path fill="#363537" d="M575.826,406.868c4.377,11.38-85.012,33.266-85.012,33.266S571.449,395.585,575.826,406.868z"/>
		</g>
	</g>
</g>
</svg>
