<?xml version="1.0" encoding="utf-8"?>
<!-- Generator: Adobe Illustrator 17.0.0, SVG Export Plug-In . SVG Version: 6.00 Build 0)  -->
<!DOCTYPE svg PUBLIC "-//W3C//DTD SVG 1.1//EN" "http://www.w3.org/Graphics/SVG/1.1/DTD/svg11.dtd">
<svg version="1.1" id="Layer_1" xmlns="http://www.w3.org/2000/svg" xmlns:xlink="http://www.w3.org/1999/xlink" x="0px" y="0px"
	 width="595.28px" height="841.89px" viewBox="0 0 595.28 841.89" enable-background="new 0 0 595.28 841.89" xml:space="preserve">
<g>
	<g>
		<g>
			<path fill="#D5D49B" d="M301.336,215.25c-12.158,0.097,0.584,91.335,0.584,91.335S313.592,215.153,301.336,215.25z"/>
		</g>
		<g>
			<path fill="#D5D49B" d="M302.017,810.53c12.158-0.097-0.584-91.335-0.584-91.335S289.859,810.628,302.017,810.53z"/>
		</g>
		<g>
			<path fill="#D5D49B" d="M0,511.918c0.097,12.159,91.335-0.584,91.335-0.584S-0.097,499.759,0,511.918z"/>
		</g>
		<g>
			<path fill="#D5D49B" d="M88.903,725.226c8.657,8.56,64.197-64.975,64.197-64.975S80.149,716.57,88.903,725.226z"/>
		</g>
		<g>
			<path fill="#D5D49B" d="M508.031,723.281c8.56-8.657-64.975-64.197-64.975-64.197S499.471,732.035,508.031,723.281z"/>
		</g>
		<g>
			<path fill="#D5D49B" d="M595.28,511.334c-0.097-12.158-91.335,0.584-91.335,0.584S595.377,523.59,595.28,511.334z"/>
		</g>
		<g>
			<path fill="#D5D49B" d="M504.529,298.901c-8.657-8.56-64.197,64.975-64.197,64.975S513.089,307.46,504.529,298.901z"/>
		</g>
		<g>
			<path fill="#D5D49B" d="M93.085,296.664c8.657-8.56,64.197,64.975,64.197,64.975S84.429,305.223,93.085,296.664z"/>
		</g>
	</g>
</g>
</svg>
