<?xml version="1.0" encoding="utf-8"?>
<!-- Generator: Adobe Illustrator 17.0.0, SVG Export Plug-In . SVG Version: 6.00 Build 0)  -->
<!DOCTYPE svg PUBLIC "-//W3C//DTD SVG 1.1//EN" "http://www.w3.org/Graphics/SVG/1.1/DTD/svg11.dtd">
<svg version="1.1" id="Layer_1" xmlns="http://www.w3.org/2000/svg" xmlns:xlink="http://www.w3.org/1999/xlink" x="0px" y="0px"
	 width="595.28px" height="841.89px" viewBox="0 0 595.28 841.89" enable-background="new 0 0 595.28 841.89" xml:space="preserve">
<g>
	<g>
		<g>
			<path fill="#7ED1DA" d="M301.433,213.156c-12.159,0.097,0.584,91.237,0.584,91.237S313.592,213.059,301.433,213.156z"/>
		</g>
		<g>
			<path fill="#7ED1DA" d="M302.017,808.631c12.158-0.097-0.584-91.237-0.584-91.237S289.761,808.631,302.017,808.631z"/>
		</g>
		<g>
			<path fill="#7ED1DA" d="M0,509.824c0.097,12.159,91.237-0.584,91.237-0.584S-0.097,497.763,0,509.824z"/>
		</g>
		<g>
			<path fill="#7ED1DA" d="M88.903,723.132c8.657,8.56,64.197-64.975,64.197-64.975S80.246,714.67,88.903,723.132z"/>
		</g>
		<g>
			<path fill="#7ED1DA" d="M508.031,721.382c8.56-8.657-64.975-64.197-64.975-64.197S499.471,730.038,508.031,721.382z"/>
		</g>
		<g>
			<path fill="#7ED1DA" d="M595.28,509.337c-0.097-12.159-91.237,0.584-91.237,0.584S595.377,521.593,595.28,509.337z"/>
		</g>
		<g>
			<path fill="#7ED1DA" d="M504.529,296.904c-8.657-8.56-64.197,64.975-64.197,64.975S513.089,305.464,504.529,296.904z"/>
		</g>
		<g>
			<path fill="#7ED1DA" d="M93.085,294.667c8.657-8.56,64.197,64.975,64.197,64.975S84.429,303.227,93.085,294.667z"/>
		</g>
	</g>
	<g>
		<g>
			<path fill="#9F2F43" d="M568.629,630.436c4.766-11.186-84.137-35.503-84.137-35.503S563.96,641.622,568.629,630.436z"/>
		</g>
		<g>
			<path fill="#9F2F43" d="M21.204,396.215c-4.766,11.186,84.137,35.503,84.137,35.503S25.971,385.029,21.204,396.215z"/>
		</g>
		<g>
			<path fill="#9F2F43" d="M414.848,236.403c-11.186-4.766-35.503,84.137-35.503,84.137S426.034,241.17,414.848,236.403z"/>
		</g>
		<g>
			<path fill="#9F2F43" d="M183.739,234.069c-11.283,4.572,34.433,84.623,34.433,84.623S195.022,229.497,183.739,234.069z"/>
		</g>
		<g>
			<path fill="#9F2F43" d="M20.232,619.931c4.572,11.283,84.623-34.433,84.623-34.433S15.563,608.745,20.232,619.931z"/>
		</g>
		<g>
			<path fill="#9F2F43" d="M180.627,783.828c11.186,4.766,35.503-84.137,35.503-84.137S169.344,779.062,180.627,783.828z"/>
		</g>
		<g>
			<path fill="#9F2F43" d="M411.638,784.119c11.283-4.572-34.433-84.623-34.433-84.623S400.355,788.594,411.638,784.119z"/>
		</g>
		<g>
			<path fill="#9F2F43" d="M575.826,406.914c4.474,11.283-85.012,33.363-85.012,33.363S571.449,395.534,575.826,406.914z"/>
		</g>
	</g>
</g>
</svg>
