<?xml version="1.0" encoding="utf-8"?>
<!-- Generator: Adobe Illustrator 17.1.0, SVG Export Plug-In . SVG Version: 6.00 Build 0)  -->
<!DOCTYPE svg PUBLIC "-//W3C//DTD SVG 1.1 Tiny//EN" "http://www.w3.org/Graphics/SVG/1.1/DTD/svg11-tiny.dtd">
<svg version="1.1" baseProfile="tiny" id="Layer_1" xmlns="http://www.w3.org/2000/svg" xmlns:xlink="http://www.w3.org/1999/xlink"
	 x="0px" y="0px" viewBox="0 90 612 608" xml:space="preserve">
<g>
	<g>
		<g>
			<path fill="#D5D49B" d="M309.8,90c-12.5,0.1,0.6,93.9,0.6,93.9S322.4,89.9,309.8,90z"/>
		</g>
		<g>
			<path fill="#D5D49B" d="M310.5,702c12.5-0.1-0.6-93.9-0.6-93.9S298,702.1,310.5,702z"/>
		</g>
		<g>
			<path fill="#D5D49B" d="M0,395c0.1,12.5,93.9-0.6,93.9-0.6S-0.1,382.5,0,395z"/>
		</g>
		<g>
			<path fill="#D5D49B" d="M91.4,614.3c8.9,8.8,66-66.8,66-66.8S82.4,605.4,91.4,614.3z"/>
		</g>
		<g>
			<path fill="#D5D49B" d="M522.3,612.3c8.8-8.9-66.8-66-66.8-66S513.5,621.3,522.3,612.3z"/>
		</g>
		<g>
			<path fill="#D5D49B" d="M612,394.4c-0.1-12.5-93.9,0.6-93.9,0.6S612.1,407,612,394.4z"/>
		</g>
		<g>
			<path fill="#D5D49B" d="M518.7,176c-8.9-8.8-66,66.8-66,66.8S527.5,184.8,518.7,176z"/>
		</g>
		<g>
			<path fill="#D5D49B" d="M95.7,173.7c8.9-8.8,66,66.8,66,66.8S86.8,182.5,95.7,173.7z"/>
		</g>
	</g>
</g>
</svg>
