<?xml version="1.0" encoding="utf-8"?>
<!-- Generator: Adobe Illustrator 17.1.0, SVG Export Plug-In . SVG Version: 6.00 Build 0)  -->
<!DOCTYPE svg PUBLIC "-//W3C//DTD SVG 1.1 Tiny//EN" "http://www.w3.org/Graphics/SVG/1.1/DTD/svg11-tiny.dtd">
<svg version="1.1" baseProfile="tiny" id="Layer_1" xmlns="http://www.w3.org/2000/svg" xmlns:xlink="http://www.w3.org/1999/xlink"
	 x="0px" y="0px" viewBox="0 89.9 612 612.1" xml:space="preserve">
<g>
	<g>
		<g>
			<path fill="#7ED1DA" d="M309.9,89.9c-12.5,0.1,0.6,93.8,0.6,93.8S322.4,89.8,309.9,89.9z"/>
		</g>
		<g>
			<path fill="#7ED1DA" d="M310.5,702.1c12.5-0.1-0.6-93.8-0.6-93.8S297.9,702.1,310.5,702.1z"/>
		</g>
		<g>
			<path fill="#7ED1DA" d="M0,394.9c0.1,12.5,93.8-0.6,93.8-0.6S-0.1,382.5,0,394.9z"/>
		</g>
		<g>
			<path fill="#7ED1DA" d="M91.4,614.2c8.9,8.8,66-66.8,66-66.8S82.5,605.5,91.4,614.2z"/>
		</g>
		<g>
			<path fill="#7ED1DA" d="M522.3,612.4c8.8-8.9-66.8-66-66.8-66S513.5,621.3,522.3,612.4z"/>
		</g>
		<g>
			<path fill="#7ED1DA" d="M612,394.4c-0.1-12.5-93.8,0.6-93.8,0.6S612.1,407,612,394.4z"/>
		</g>
		<g>
			<path fill="#7ED1DA" d="M518.7,176c-8.9-8.8-66,66.8-66,66.8S527.5,184.8,518.7,176z"/>
		</g>
		<g>
			<path fill="#7ED1DA" d="M95.7,173.7c8.9-8.8,66,66.8,66,66.8S86.8,182.5,95.7,173.7z"/>
		</g>
	</g>
	<g>
		<g>
			<path fill="#9F2F43" d="M584.6,518.9c4.9-11.5-86.5-36.5-86.5-36.5S579.8,530.4,584.6,518.9z"/>
		</g>
		<g>
			<path fill="#9F2F43" d="M21.8,278.1c-4.9,11.5,86.5,36.5,86.5,36.5S26.7,266.6,21.8,278.1z"/>
		</g>
		<g>
			<path fill="#9F2F43" d="M426.5,113.8c-11.5-4.9-36.5,86.5-36.5,86.5S438,118.7,426.5,113.8z"/>
		</g>
		<g>
			<path fill="#9F2F43" d="M188.9,111.4c-11.6,4.7,35.4,87,35.4,87S200.5,106.7,188.9,111.4z"/>
		</g>
		<g>
			<path fill="#9F2F43" d="M20.8,508.1c4.7,11.6,87-35.4,87-35.4S16,496.6,20.8,508.1z"/>
		</g>
		<g>
			<path fill="#9F2F43" d="M185.7,676.6c11.5,4.9,36.5-86.5,36.5-86.5S174.1,671.7,185.7,676.6z"/>
		</g>
		<g>
			<path fill="#9F2F43" d="M423.2,676.9c11.6-4.7-35.4-87-35.4-87S411.6,681.5,423.2,676.9z"/>
		</g>
		<g>
			<path fill="#9F2F43" d="M592,289.1c4.6,11.6-87.4,34.3-87.4,34.3S587.5,277.4,592,289.1z"/>
		</g>
	</g>
</g>
</svg>
