<?xml version="1.0" encoding="utf-8"?>
<!-- Generator: Adobe Illustrator 17.1.0, SVG Export Plug-In . SVG Version: 6.00 Build 0)  -->
<!DOCTYPE svg PUBLIC "-//W3C//DTD SVG 1.1//EN" "http://www.w3.org/Graphics/SVG/1.1/DTD/svg11.dtd">
<svg version="1.1" id="Layer_1" xmlns="http://www.w3.org/2000/svg" xmlns:xlink="http://www.w3.org/1999/xlink" x="0px" y="0px"
	 viewBox="0 0 59.3 158.2" enable-background="new 0 0 59.3 158.2" xml:space="preserve">
<path fill="#9F2F43" d="M59.3,156.2c0,1.1-0.9,2-2,2H2c-1.1,0-2-0.9-2-2L1.9,48.5c0-1.1,0.9-2,2-2h51.3c1.1,0,2,0.9,2,2L59.3,156.2z
	"/>
<path fill="#9F2F43" d="M17.2,47c0,0-1.8-23.8,0-47c-8.6,5.8-11,47-11,47H17.2z"/>
<path fill="#9F2F43" d="M42,47c0,0,1.8-23.8,0-47c8.6,5.8,11,47,11,47H42z"/>
<rect x="25.6" y="69.5" fill="#363537" width="8.1" height="88.7"/>
</svg>
