<?xml version="1.0" encoding="utf-8"?>
<!-- Generator: Adobe Illustrator 17.0.0, SVG Export Plug-In . SVG Version: 6.00 Build 0)  -->
<!DOCTYPE svg PUBLIC "-//W3C//DTD SVG 1.1//EN" "http://www.w3.org/Graphics/SVG/1.1/DTD/svg11.dtd">
<svg version="1.1" id="Layer_1" xmlns="http://www.w3.org/2000/svg" xmlns:xlink="http://www.w3.org/1999/xlink" x="0px" y="0px"
	 width="595.28px" height="841.89px" viewBox="0 0 595.28 841.89" enable-background="new 0 0 595.28 841.89" xml:space="preserve">
<path fill="#9F2F43" d="M455.428,831.247c0,5.854-4.79,10.643-10.643,10.643H150.496c-5.854,0-10.643-4.789-10.643-10.643
	l10.111-573.145c0-5.854,4.79-10.643,10.643-10.643h273.002c5.854,0,10.643,4.79,10.643,10.643L455.428,831.247z"/>
<path fill="#9F2F43" d="M231.385,250.119c0,0-9.579-126.656,0-250.119c-45.766,30.866-58.538,250.119-58.538,250.119H231.385z"/>
<path fill="#9F2F43" d="M363.363,250.119c0,0,9.579-126.656,0-250.119c45.766,30.866,58.538,250.119,58.538,250.119H363.363z"/>
<rect x="276.087" y="369.857" fill="#363537" width="43.106" height="472.033"/>
</svg>
