<?xml version="1.0" encoding="utf-8"?>
<!-- Generator: Adobe Illustrator 17.0.0, SVG Export Plug-In . SVG Version: 6.00 Build 0)  -->
<!DOCTYPE svg PUBLIC "-//W3C//DTD SVG 1.1//EN" "http://www.w3.org/Graphics/SVG/1.1/DTD/svg11.dtd">
<svg version="1.1" id="Layer_1" xmlns="http://www.w3.org/2000/svg" xmlns:xlink="http://www.w3.org/1999/xlink" x="0px" y="0px"
	 width="595.28px" height="841.89px" viewBox="0 0 595.28 841.89" enable-background="new 0 0 595.28 841.89" xml:space="preserve">
<rect x="153.818" y="409.521" fill="#57979E" width="430.038" height="22.848"/>
<path fill="#57979E" d="M595.28,420.945c0,6.12-4.896,11.424-11.424,11.424c-6.528,0-11.424-4.896-11.424-11.424
	c0-6.12,4.896-11.424,11.424-11.424C590.384,409.521,595.28,414.825,595.28,420.945"/>
<polygon fill="#57979E" points="469.206,432.369 469.206,487.042 481.447,487.042 481.447,449.913 494.095,449.913 494.095,487.042 
	506.335,487.042 506.335,449.913 518.575,449.913 518.575,487.042 564.272,487.042 564.272,432.369 "/>
<path fill="#57979E" d="M83.233,337.712C37.129,337.712,0,374.84,0,420.945s37.129,83.233,83.233,83.233
	s83.233-37.129,83.233-83.233S129.338,337.712,83.233,337.712 M83.233,484.186c-36.72,0-66.097-28.56-66.097-63.241
	c0-35.088,29.784-63.241,66.097-63.241c36.72,0,66.097,28.56,66.097,63.241C149.33,456.033,119.546,484.186,83.233,484.186"/>
<path fill="#57979E" d="M209.715,420.945c0,15.912-13.056,28.968-28.968,28.968s-28.968-13.056-28.968-28.968
	s13.056-28.968,28.968-28.968S209.715,405.033,209.715,420.945"/>
</svg>
