<?xml version="1.0" encoding="utf-8"?>
<!-- Generator: Adobe Illustrator 17.0.0, SVG Export Plug-In . SVG Version: 6.00 Build 0)  -->
<!DOCTYPE svg PUBLIC "-//W3C//DTD SVG 1.1//EN" "http://www.w3.org/Graphics/SVG/1.1/DTD/svg11.dtd">
<svg version="1.1" id="Layer_1" xmlns="http://www.w3.org/2000/svg" xmlns:xlink="http://www.w3.org/1999/xlink" x="0px" y="0px"
	 width="595.28px" height="841.89px" viewBox="0 0 595.28 841.89" enable-background="new 0 0 595.28 841.89" xml:space="preserve">
<path fill="#57979E" d="M595.28,724.851c0,27.571-22.558,50.129-50.129,50.129H50.129C22.558,774.98,0,752.422,0,724.851V117.039
	C0,89.468,22.558,66.91,50.129,66.91h495.022c27.571,0,50.129,22.558,50.129,50.129V724.851z"/>
<path fill="#363537" d="M130.335,177.193c0,13.785-11.279,25.064-25.064,25.064s-25.064-11.279-25.064-25.064
	s11.279-25.064,25.064-25.064S130.335,163.408,130.335,177.193"/>
<path fill="#363537" d="M130.335,664.697c0,13.785-11.279,25.064-25.064,25.064s-25.064-11.279-25.064-25.064
	s11.279-26.318,25.064-26.318C119.056,639.632,130.335,650.911,130.335,664.697"/>
<path fill="#363537" d="M516.327,177.193c0,13.785-11.279,25.064-26.318,25.064c-13.785,0-25.064-11.279-25.064-25.064
	s11.279-25.064,25.064-25.064S516.327,163.408,516.327,177.193"/>
<path fill="#363537" d="M516.327,664.697c0,13.785-11.279,25.064-26.318,25.064c-13.785,0-25.064-11.279-25.064-25.064
	s11.279-26.318,25.064-26.318C503.795,639.632,516.327,650.911,516.327,664.697"/>
<path fill="#363537" d="M368.447,317.554c0,38.85-31.331,71.434-71.434,71.434s-71.434-31.331-71.434-71.434
	c0-38.85,31.331-71.434,71.434-71.434S368.447,277.451,368.447,317.554"/>
<polygon fill="#363537" points="391.005,595.769 204.275,595.769 248.138,368.936 347.142,368.936 "/>
</svg>
