<?xml version="1.0" encoding="utf-8"?>
<!-- Generator: Adobe Illustrator 16.0.0, SVG Export Plug-In . SVG Version: 6.00 Build 0)  -->
<!DOCTYPE svg PUBLIC "-//W3C//DTD SVG 1.1 Tiny//EN" "http://www.w3.org/Graphics/SVG/1.1/DTD/svg11-tiny.dtd">
<svg version="1.1" baseProfile="tiny" id="Layer_1" xmlns="http://www.w3.org/2000/svg" xmlns:xlink="http://www.w3.org/1999/xlink"
	 x="0px" y="0px" width="23.402px" height="23.4px" viewBox="0 0 23.402 23.4" xml:space="preserve">
<path fill="#A5CFD2" d="M4.818,18.584c0,0,0.68-7.494,3.902-10.717c3.22-3.221,9.237-2.424,9.237-2.424s0.797,6.018-2.424,9.238
	S4.818,18.584,4.818,18.584"/>
<path fill="#74A3A8" d="M4.818,18.584c0,0,5.779-4.818,10.336-4.818c4.553,0,8.248,4.818,8.248,4.818S19.708,23.4,15.155,23.4
	C10.598,23.4,4.818,18.584,4.818,18.584"/>
<path fill="#74A3A8" d="M4.818,18.584c0,0-4.818-5.781-4.818-10.338C0,3.693,4.818,0,4.818,0s4.818,3.693,4.818,8.246
	C9.637,12.803,4.818,18.584,4.818,18.584"/>
</svg>
