<?xml version="1.0" encoding="utf-8"?>
<!-- Generator: Adobe Illustrator 16.0.0, SVG Export Plug-In . SVG Version: 6.00 Build 0)  -->
<!DOCTYPE svg PUBLIC "-//W3C//DTD SVG 1.1 Tiny//EN" "http://www.w3.org/Graphics/SVG/1.1/DTD/svg11-tiny.dtd">
<svg version="1.1" baseProfile="tiny" id="Layer_1" xmlns="http://www.w3.org/2000/svg" xmlns:xlink="http://www.w3.org/1999/xlink"
	 x="0px" y="0px" width="59.271px" height="158.166px" viewBox="0 0 59.271 158.166" xml:space="preserve">
<path fill="#BB4F54" d="M59.27,156.166c0.02,1.1-0.867,2-1.965,2H1.961c-1.098,0-1.984-0.9-1.961-2L1.926,48.502
	c0.02-1.1,0.938-2,2.035-2h51.343c1.098,0,2.016,0.9,2.035,2L59.27,156.166z"/>
<path fill="#BB4F54" d="M17.243,47c0,0-1.785-23.834,0-47c-8.617,5.834-11,47-11,47H17.243z"/>
<path fill="#BB4F54" d="M42.027,47c0,0,1.781-23.834,0-47c8.613,5.834,11,47,11,47H42.027z"/>
<rect x="25.594" y="69.499" fill="#352B2D" width="8.082" height="88.666"/>
</svg>
