<?xml version="1.0" encoding="utf-8"?>
<!-- Generator: Adobe Illustrator 16.0.0, SVG Export Plug-In . SVG Version: 6.00 Build 0)  -->
<!DOCTYPE svg PUBLIC "-//W3C//DTD SVG 1.1 Tiny//EN" "http://www.w3.org/Graphics/SVG/1.1/DTD/svg11-tiny.dtd">
<svg version="1.1" baseProfile="tiny" id="Layer_1" xmlns="http://www.w3.org/2000/svg" xmlns:xlink="http://www.w3.org/1999/xlink"
	 x="0px" y="0px" width="64.562px" height="49.375px" viewBox="0 0 64.562 49.375" xml:space="preserve">
<path fill="#74A3A8" d="M52.612,11.95c0,0-6.771-0.613-9.682-3.523s-2.191-8.348-2.191-8.348s5.439-0.721,8.35,2.189
	S52.612,11.95,52.612,11.95"/>
<path fill="#74A3A8" d="M52.612,11.95c0,0,0.613-6.771,3.523-9.682c2.912-2.91,8.348-2.189,8.348-2.189s0.721,5.438-2.189,8.348
	S52.612,11.95,52.612,11.95"/>
<path fill="#74A3A8" d="M52.612,11.95c0,0,6.771,0.615,9.682,3.523c2.91,2.91,2.189,8.35,2.189,8.35s-5.436,0.719-8.348-2.191
	C53.226,18.722,52.612,11.95,52.612,11.95"/>
<path fill="#74A3A8" d="M52.612,11.95c0,0-0.613,6.771-3.523,9.682s-8.35,2.191-8.35,2.191s-0.719-5.439,2.191-8.35
	C45.841,12.565,52.612,11.95,52.612,11.95"/>
<path fill="none" stroke="#75A3A8" stroke-miterlimit="10" d="M20.612,48.962c-3.731-0.027-16.403-1.566-16.262-7.41
	c0.166-6.678,13.868-4.436,17.444-8.352c5.193-5.684,1.132-15.188-7.746-14.334c-7.988,0.766-4.59,8.551,0.508,5.348
	c6.618-4.16,2.552-19.857-4.762-21.193C3.552,1.878-2.73,10.663,2.804,15.472c5.042,4.383,16.984-5.479,21.85-6.957
	c9.951-3.029,18.72-0.834,27.958,3.447"/>
</svg>
