<?xml version="1.0" encoding="utf-8"?>
<!-- Generator: Adobe Illustrator 17.1.0, SVG Export Plug-In . SVG Version: 6.00 Build 0)  -->
<!DOCTYPE svg PUBLIC "-//W3C//DTD SVG 1.1//EN" "http://www.w3.org/Graphics/SVG/1.1/DTD/svg11.dtd">
<svg version="1.1" id="Layer_1" xmlns="http://www.w3.org/2000/svg" xmlns:xlink="http://www.w3.org/1999/xlink" x="0px" y="0px"
	 viewBox="0 0 47.5 56.5" enable-background="new 0 0 47.5 56.5" xml:space="preserve">
<path fill="#74A2A7" d="M47.5,52.5c0,2.2-1.8,4-4,4H4c-2.2,0-4-1.8-4-4V4c0-2.2,1.8-4,4-4h39.5c2.2,0,4,1.8,4,4
	C47.5,4,47.5,52.5,47.5,52.5z"/>
<path fill="#362C2D" d="M10.4,8.8c0,1.1-0.9,2-2,2c-1.1,0-2-0.9-2-2c0-1.1,0.9-2,2-2C9.5,6.8,10.4,7.7,10.4,8.8"/>
<path fill="#362C2D" d="M10.4,47.7c0,1.1-0.9,2-2,2c-1.1,0-2-0.9-2-2c0-1.1,0.9-2.1,2-2.1C9.5,45.7,10.4,46.6,10.4,47.7"/>
<path fill="#362C2D" d="M41.2,8.8c0,1.1-0.9,2-2.1,2c-1.1,0-2-0.9-2-2c0-1.1,0.9-2,2-2C40.2,6.8,41.2,7.7,41.2,8.8"/>
<path fill="#362C2D" d="M41.2,47.7c0,1.1-0.9,2-2.1,2c-1.1,0-2-0.9-2-2c0-1.1,0.9-2.1,2-2.1C40.2,45.7,41.2,46.6,41.2,47.7"/>
<path fill="#362C2D" d="M29.4,20c0,3.1-2.5,5.7-5.7,5.7s-5.7-2.5-5.7-5.7c0-3.1,2.5-5.7,5.7-5.7S29.4,16.8,29.4,20"/>
<polygon fill="#362C2D" points="31.2,42.2 16.3,42.2 19.8,24.1 27.7,24.1 "/>
</svg>
