<?xml version="1.0" encoding="utf-8"?>
<!-- Generator: Adobe Illustrator 16.0.0, SVG Export Plug-In . SVG Version: 6.00 Build 0)  -->
<!DOCTYPE svg PUBLIC "-//W3C//DTD SVG 1.1 Tiny//EN" "http://www.w3.org/Graphics/SVG/1.1/DTD/svg11-tiny.dtd">
<svg version="1.1" baseProfile="tiny" id="Layer_1" xmlns="http://www.w3.org/2000/svg" xmlns:xlink="http://www.w3.org/1999/xlink"
	 x="0px" y="0px" width="50.394px" height="41.462px" viewBox="0 0 50.394 41.462" xml:space="preserve">
<path fill="#74A3A8" d="M38.522,29.59c0,0,0.613-6.772,3.523-9.682c2.912-2.91,8.348-2.19,8.348-2.19s0.721,5.438-2.189,8.348
	S38.522,29.59,38.522,29.59"/>
<path fill="#74A3A8" d="M38.522,29.59c0,0,6.771,0.614,9.682,3.524c2.91,2.909,2.189,8.348,2.189,8.348s-5.436,0.72-8.348-2.19
	C39.136,36.362,38.522,29.59,38.522,29.59"/>
<path fill="#74A3A8" d="M38.522,29.59c0,0-0.613,6.771-3.523,9.682s-8.35,2.19-8.35,2.19s-0.719-5.438,2.191-8.348
	C31.751,30.205,38.522,29.59,38.522,29.59"/>
<path fill="#74A3A8" d="M38.522,29.59c0,0-6.771-0.614-9.682-3.524s-2.191-8.348-2.191-8.348s5.439-0.72,8.35,2.19
	C37.909,22.818,38.522,29.59,38.522,29.59"/>
<path fill="none" stroke="#75A3A8" stroke-miterlimit="10" d="M7.522,7.57C19.447,6.804,6.21-8.806,1.354,9.608
	c-2.852,10.822,8.164,16.206,13.145,6.114C6.159,15.7-3.042,23.972,2.772,32c7.91,10.927,27.6,3.057,35.75-2.43"/>
</svg>
