<?xml version="1.0" encoding="utf-8"?>
<!-- Generator: Adobe Illustrator 17.0.0, SVG Export Plug-In . SVG Version: 6.00 Build 0)  -->
<!DOCTYPE svg PUBLIC "-//W3C//DTD SVG 1.1//EN" "http://www.w3.org/Graphics/SVG/1.1/DTD/svg11.dtd">
<svg version="1.1" id="Layer_1" xmlns="http://www.w3.org/2000/svg" xmlns:xlink="http://www.w3.org/1999/xlink" x="0px" y="0px"
	 width="595.28px" height="841.89px" viewBox="0 0 595.28 841.89" enable-background="new 0 0 595.28 841.89" xml:space="preserve">
<g>
	<line fill="none" stroke="#9F2F43" stroke-width="4" stroke-miterlimit="10" x1="2.918" y1="35.764" x2="2.918" y2="661.197"/>
	<line fill="none" stroke="#9F2F43" stroke-width="4" stroke-miterlimit="10" x1="30.153" y1="35.764" x2="30.153" y2="661.197"/>
	
		<line fill="none" stroke="#9F2F43" stroke-width="2.9998" stroke-miterlimit="10" x1="4.183" y1="369.393" x2="30.153" y2="369.588"/>
	
		<line fill="none" stroke="#9F2F43" stroke-width="2.9998" stroke-miterlimit="10" x1="4.183" y1="386.415" x2="30.153" y2="386.512"/>
	
		<line fill="none" stroke="#9F2F43" stroke-width="2.9998" stroke-miterlimit="10" x1="4.183" y1="401.005" x2="30.153" y2="401.102"/>
	
		<line fill="none" stroke="#9F2F43" stroke-width="2.9998" stroke-miterlimit="10" x1="4.085" y1="417.93" x2="30.056" y2="418.124"/>
	
		<line fill="none" stroke="#9F2F43" stroke-width="2.9998" stroke-miterlimit="10" x1="4.085" y1="432.52" x2="30.056" y2="432.617"/>
	
		<line fill="none" stroke="#9F2F43" stroke-width="2.9998" stroke-miterlimit="10" x1="4.085" y1="449.542" x2="30.056" y2="449.639"/>
	
		<line fill="none" stroke="#9F2F43" stroke-width="2.9998" stroke-miterlimit="10" x1="3.988" y1="464.035" x2="29.959" y2="464.229"/>
	
		<line fill="none" stroke="#9F2F43" stroke-width="2.9998" stroke-miterlimit="10" x1="3.988" y1="481.057" x2="29.959" y2="481.154"/>
	
		<line fill="none" stroke="#9F2F43" stroke-width="2.9998" stroke-miterlimit="10" x1="3.988" y1="495.647" x2="29.959" y2="495.744"/>
	
		<line fill="none" stroke="#9F2F43" stroke-width="2.9998" stroke-miterlimit="10" x1="3.891" y1="512.571" x2="29.861" y2="512.766"/>
	
		<line fill="none" stroke="#9F2F43" stroke-width="2.9998" stroke-miterlimit="10" x1="3.891" y1="527.162" x2="29.861" y2="527.356"/>
	
		<line fill="none" stroke="#9F2F43" stroke-width="2.9998" stroke-miterlimit="10" x1="3.891" y1="544.184" x2="29.861" y2="544.281"/>
	
		<line fill="none" stroke="#9F2F43" stroke-width="2.9998" stroke-miterlimit="10" x1="3.793" y1="558.774" x2="29.861" y2="558.871"/>
	
		<line fill="none" stroke="#9F2F43" stroke-width="2.9998" stroke-miterlimit="10" x1="3.793" y1="575.698" x2="29.764" y2="575.893"/>
	
		<line fill="none" stroke="#9F2F43" stroke-width="2.9998" stroke-miterlimit="10" x1="3.793" y1="590.289" x2="29.764" y2="590.386"/>
	
		<line fill="none" stroke="#9F2F43" stroke-width="2.9998" stroke-miterlimit="10" x1="3.696" y1="607.31" x2="29.764" y2="607.408"/>
	
		<line fill="none" stroke="#9F2F43" stroke-width="2.9998" stroke-miterlimit="10" x1="3.696" y1="621.803" x2="29.667" y2="621.998"/>
	
		<line fill="none" stroke="#9F2F43" stroke-width="2.9998" stroke-miterlimit="10" x1="3.696" y1="638.825" x2="29.667" y2="638.922"/>
	
		<line fill="none" stroke="#9F2F43" stroke-width="2.9998" stroke-miterlimit="10" x1="4.183" y1="100.933" x2="30.153" y2="101.128"/>
	
		<line fill="none" stroke="#9F2F43" stroke-width="2.9998" stroke-miterlimit="10" x1="4.183" y1="115.524" x2="30.153" y2="115.718"/>
	
		<line fill="none" stroke="#9F2F43" stroke-width="2.9998" stroke-miterlimit="10" x1="4.183" y1="132.545" x2="30.153" y2="132.643"/>
	
		<line fill="none" stroke="#9F2F43" stroke-width="2.9998" stroke-miterlimit="10" x1="4.085" y1="147.233" x2="30.056" y2="147.427"/>
	
		<line fill="none" stroke="#9F2F43" stroke-width="2.9998" stroke-miterlimit="10" x1="4.085" y1="164.06" x2="30.056" y2="164.255"/>
	
		<line fill="none" stroke="#9F2F43" stroke-width="2.9998" stroke-miterlimit="10" x1="4.085" y1="178.942" x2="30.056" y2="179.137"/>
	<path fill="none" stroke="#9F2F43" stroke-width="2.9998" stroke-miterlimit="10" d="M32.098,36.347"/>
	<path fill="none" stroke="#9F2F43" stroke-width="2.9998" stroke-miterlimit="10" d="M4.183,36.25"/>
	<line fill="none" stroke="#9F2F43" stroke-width="2.9998" stroke-miterlimit="10" x1="4.183" y1="50.84" x2="30.153" y2="50.938"/>
	
		<line fill="none" stroke="#9F2F43" stroke-width="2.9998" stroke-miterlimit="10" x1="4.085" y1="67.765" x2="30.056" y2="67.959"/>
	<line fill="none" stroke="#9F2F43" stroke-width="2.9998" stroke-miterlimit="10" x1="4.085" y1="82.355" x2="30.056" y2="82.55"/>
	
		<line fill="none" stroke="#9F2F43" stroke-width="2.9998" stroke-miterlimit="10" x1="3.988" y1="195.672" x2="29.959" y2="195.77"/>
	
		<line fill="none" stroke="#9F2F43" stroke-width="2.9998" stroke-miterlimit="10" x1="3.988" y1="212.597" x2="29.959" y2="212.792"/>
	
		<line fill="none" stroke="#9F2F43" stroke-width="2.9998" stroke-miterlimit="10" x1="3.988" y1="227.187" x2="29.959" y2="227.284"/>
	
		<line fill="none" stroke="#9F2F43" stroke-width="2.9998" stroke-miterlimit="10" x1="3.891" y1="244.209" x2="29.861" y2="244.306"/>
	
		<line fill="none" stroke="#9F2F43" stroke-width="2.9998" stroke-miterlimit="10" x1="3.891" y1="258.702" x2="29.861" y2="258.897"/>
	
		<line fill="none" stroke="#9F2F43" stroke-width="2.9998" stroke-miterlimit="10" x1="3.891" y1="275.724" x2="29.861" y2="275.821"/>
	
		<line fill="none" stroke="#9F2F43" stroke-width="2.9998" stroke-miterlimit="10" x1="3.793" y1="290.314" x2="29.861" y2="290.411"/>
	
		<line fill="none" stroke="#9F2F43" stroke-width="2.9998" stroke-miterlimit="10" x1="3.793" y1="307.239" x2="29.764" y2="307.433"/>
	
		<line fill="none" stroke="#9F2F43" stroke-width="2.9998" stroke-miterlimit="10" x1="3.793" y1="321.829" x2="29.764" y2="322.023"/>
	
		<line fill="none" stroke="#9F2F43" stroke-width="2.9998" stroke-miterlimit="10" x1="3.696" y1="338.851" x2="29.764" y2="338.948"/>
	
		<line fill="none" stroke="#9F2F43" stroke-width="2.9998" stroke-miterlimit="10" x1="3.696" y1="353.441" x2="29.667" y2="353.538"/>
</g>
</svg>
