<?xml version="1.0" encoding="utf-8"?>
<!-- Generator: Adobe Illustrator 17.0.0, SVG Export Plug-In . SVG Version: 6.00 Build 0)  -->
<!DOCTYPE svg PUBLIC "-//W3C//DTD SVG 1.1//EN" "http://www.w3.org/Graphics/SVG/1.1/DTD/svg11.dtd">
<svg version="1.1" id="Layer_1" xmlns="http://www.w3.org/2000/svg" xmlns:xlink="http://www.w3.org/1999/xlink" x="0px" y="0px"
	 width="595.28px" height="841.89px" viewBox="0 0 595.28 841.89" enable-background="new 0 0 595.28 841.89" xml:space="preserve">
<line fill="none" stroke="#D5D49B" stroke-width="6" stroke-miterlimit="10" x1="297.64" y1="841.89" x2="297.64" y2="104.583"/>
<g>
	<path fill="#57979E" d="M395.763,6.46l-98.123,98.123l-29.222-29.222c0,0,56.905-56.905,67.671-67.671
		C353.007-8.92,395.763,6.46,395.763,6.46z"/>
	<path fill="#57979E" d="M395.763,202.706l-98.123-98.123l29.222-29.222c0,0,56.905,56.905,67.671,67.671
		C411.143,159.95,395.763,202.706,395.763,202.706z"/>
	<path fill="#57979E" d="M199.517,202.706l98.123-98.123l29.222,29.222c0,0-56.905,56.905-67.671,67.671
		C242.273,218.085,199.517,202.706,199.517,202.706z"/>
	<path fill="#57979E" d="M199.517,6.46l98.123,98.123l-29.222,29.222c0,0-56.905-56.905-67.671-67.671
		C184.137,49.215,199.517,6.46,199.517,6.46z"/>
</g>
<circle fill="#363537" cx="297.64" cy="104.583" r="18.456"/>
</svg>
