<?xml version="1.0" encoding="utf-8"?>
<!-- Generator: Adobe Illustrator 17.1.0, SVG Export Plug-In . SVG Version: 6.00 Build 0)  -->
<!DOCTYPE svg PUBLIC "-//W3C//DTD SVG 1.1 Tiny//EN" "http://www.w3.org/Graphics/SVG/1.1/DTD/svg11-tiny.dtd">
<svg version="1.1" baseProfile="tiny" id="Layer_1" xmlns="http://www.w3.org/2000/svg" xmlns:xlink="http://www.w3.org/1999/xlink"
	 x="0px" y="0px" viewBox="0 90 612 612" xml:space="preserve">
<g>
	<g>
		<g>
			<path fill="#E9E9E3" d="M309.9,90c-12.5,0.1,0.6,93.8,0.6,93.8S322.5,89.9,309.9,90z"/>
		</g>
		<g>
			<path fill="#E9E9E3" d="M310.5,702c12.5-0.1-0.6-93.8-0.6-93.8S298,702.1,310.5,702z"/>
		</g>
		<g>
			<path fill="#E9E9E3" d="M0,395c0.1,12.5,93.8-0.6,93.8-0.6S-0.1,382.4,0,395z"/>
		</g>
		<g>
			<path fill="#E9E9E3" d="M91.4,614.3c8.9,8.7,66-66.7,66-66.7S82.5,605.5,91.4,614.3z"/>
		</g>
		<g>
			<path fill="#E9E9E3" d="M522.2,612.4c8.7-8.9-66.7-66-66.7-66S513.5,621.3,522.2,612.4z"/>
		</g>
		<g>
			<path fill="#E9E9E3" d="M612,394.4c-0.1-12.5-93.8,0.6-93.8,0.6S612.1,406.9,612,394.4z"/>
		</g>
		<g>
			<path fill="#E9E9E3" d="M518.7,176c-8.9-8.7-66,66.7-66,66.7S527.6,184.9,518.7,176z"/>
		</g>
		<g>
			<path fill="#E9E9E3" d="M95.7,173.8c8.9-8.7,66,66.7,66,66.7S86.8,182.5,95.7,173.8z"/>
		</g>
	</g>
	<g>
		<g>
			<path fill="#372B2E" d="M584.6,519c4.8-11.5-86.6-36.4-86.6-36.4S579.8,530.5,584.6,519z"/>
		</g>
		<g>
			<path fill="#372B2E" d="M21.9,278.3c-4.8,11.5,86.6,36.4,86.6,36.4S26.7,266.6,21.9,278.3z"/>
		</g>
		<g>
			<path fill="#372B2E" d="M426.4,113.9c-11.5-4.8-36.4,86.6-36.4,86.6S438,118.7,426.4,113.9z"/>
		</g>
		<g>
			<path fill="#372B2E" d="M188.8,111.4c-11.7,4.7,35.4,87,35.4,87S200.5,106.8,188.8,111.4z"/>
		</g>
		<g>
			<path fill="#372B2E" d="M20.7,508.2c4.7,11.7,87-35.4,87-35.4S16,496.7,20.7,508.2z"/>
		</g>
		<g>
			<path fill="#372B2E" d="M185.6,676.6c11.5,4.8,36.4-86.6,36.4-86.6S174.1,671.7,185.6,676.6z"/>
		</g>
		<g>
			<path fill="#372B2E" d="M423.2,676.9c11.7-4.7-35.4-87-35.4-87S411.6,681.6,423.2,676.9z"/>
		</g>
		<g>
			<path fill="#372B2E" d="M592,289c4.5,11.7-87.4,34.2-87.4,34.2S587.5,277.4,592,289z"/>
		</g>
	</g>
</g>
</svg>
