<?xml version="1.0" encoding="utf-8"?>
<!-- Generator: Adobe Illustrator 17.1.0, SVG Export Plug-In . SVG Version: 6.00 Build 0)  -->
<!DOCTYPE svg PUBLIC "-//W3C//DTD SVG 1.1 Tiny//EN" "http://www.w3.org/Graphics/SVG/1.1/DTD/svg11-tiny.dtd">
<svg version="1.1" baseProfile="tiny" id="Layer_1" xmlns="http://www.w3.org/2000/svg" xmlns:xlink="http://www.w3.org/1999/xlink"
	 x="0px" y="0px" viewBox="0 0 151.4 203.5" xml:space="preserve">
<g>
	<path fill="#9F2F43" d="M130.1,22.3c-29.8-29.8-78-29.8-107.8,0c-29.8,29.8-29.8,78,0,107.8l41,41h25.8l41-41
		C159.9,100.4,159.9,52.1,130.1,22.3z"/>
</g>
<rect x="66.5" y="190.6" fill="#D5D49B" width="19.4" height="12.9"/>
<path fill="#7ED1DA" d="M0.1,77.7c0.1,4.5,0.5,9.1,1.4,13.5H151c0.9-4.5,1.3-9,1.4-13.5H0.1z"/>
<path fill="#7ED1DA" d="M5.5,104.7c1.9,4.7,4.2,9.2,7.1,13.5h127.2c2.9-4.3,5.2-8.8,7.1-13.5H5.5z"/>
<polygon fill="#7ED1DA" points="115,145.3 128.5,131.8 24,131.8 37.5,145.3 "/>
<polygon fill="#7ED1DA" points="101.4,158.8 51,158.8 63.4,171.2 89.1,171.2 "/>
<path fill="#7ED1DA" d="M4.6,50.2C3,54.7,1.9,59.2,1.1,63.8h150.3c-0.8-4.6-1.9-9.1-3.5-13.5H4.6z"/>
<path fill="#7ED1DA" d="M21.6,23.2c-4.1,4.2-7.5,8.7-10.4,13.5h130.2c-2.9-4.8-6.4-9.3-10.4-13.5H21.6z"/>
<path fill="#7ED1DA" d="M39.2,9.7h74.1C90.3-3.1,62.2-3.1,39.2,9.7z"/>
</svg>
