<?xml version="1.0" encoding="utf-8"?>
<!-- Generator: Adobe Illustrator 17.0.0, SVG Export Plug-In . SVG Version: 6.00 Build 0)  -->
<!DOCTYPE svg PUBLIC "-//W3C//DTD SVG 1.1//EN" "http://www.w3.org/Graphics/SVG/1.1/DTD/svg11.dtd">
<svg version="1.1" id="Layer_1" xmlns="http://www.w3.org/2000/svg" xmlns:xlink="http://www.w3.org/1999/xlink" x="0px" y="0px"
	 width="595.28px" height="841.89px" viewBox="0 0 595.28 841.89" enable-background="new 0 0 595.28 841.89" xml:space="preserve">
<g>
	<g>
		
			<rect x="1.654" y="87.024" fill="none" stroke="#D5D49B" stroke-width="4" stroke-miterlimit="10" width="77.814" height="77.814"/>
		<path fill="none" stroke="#D5D49B" stroke-width="4" stroke-miterlimit="10" d="M1.654,87.024
			c0-21.496,17.411-38.907,38.907-38.907s38.907,17.411,38.907,38.907"/>
		<rect x="1.654" y="165.227" fill="#D5D49B" width="77.814" height="5.836"/>
		<rect x="-3.21" y="171.258" fill="#D5D49B" width="87.541" height="3.891"/>
		<line fill="none" stroke="#D5D49B" stroke-width="4" stroke-miterlimit="10" x1="1.654" y1="132.837" x2="79.468" y2="132.837"/>
		<line fill="none" stroke="#D5D49B" stroke-width="4" stroke-miterlimit="10" x1="40.561" y1="48.117" x2="40.561" y2="164.838"/>
		<g>
			<line fill="none" stroke="#D5D49B" stroke-width="4" stroke-miterlimit="10" x1="20.621" y1="53.564" x2="20.621" y2="165.227"/>
			<line fill="none" stroke="#D5D49B" stroke-width="4" stroke-miterlimit="10" x1="60.598" y1="53.564" x2="60.598" y2="165.227"/>
		</g>
		<g>
			<line fill="none" stroke="#D5D49B" stroke-width="4" stroke-miterlimit="10" x1="31.418" y1="49.77" x2="31.418" y2="165.227"/>
			<line fill="none" stroke="#D5D49B" stroke-width="4" stroke-miterlimit="10" x1="49.801" y1="49.77" x2="49.801" y2="165.227"/>
		</g>
		<g>
			<line fill="none" stroke="#D5D49B" stroke-width="4" stroke-miterlimit="10" x1="10.894" y1="61.832" x2="10.894" y2="165.227"/>
			<line fill="none" stroke="#D5D49B" stroke-width="4" stroke-miterlimit="10" x1="70.227" y1="61.832" x2="70.227" y2="165.227"/>
		</g>
	</g>
	<circle fill="none" stroke="#D5D49B" stroke-width="4" stroke-miterlimit="10" cx="40.561" cy="41.6" r="5.836"/>
</g>
</svg>
