<?xml version="1.0" encoding="utf-8"?>
<!-- Generator: Adobe Illustrator 17.0.0, SVG Export Plug-In . SVG Version: 6.00 Build 0)  -->
<!DOCTYPE svg PUBLIC "-//W3C//DTD SVG 1.1//EN" "http://www.w3.org/Graphics/SVG/1.1/DTD/svg11.dtd">
<svg version="1.1" id="Layer_1" xmlns="http://www.w3.org/2000/svg" xmlns:xlink="http://www.w3.org/1999/xlink" x="0px" y="0px"
	 width="595.28px" height="841.89px" viewBox="0 0 595.28 841.89" enable-background="new 0 0 595.28 841.89" xml:space="preserve">
<g>
	<rect x="223.361" y="172.6" fill="#9F2F43" width="148.557" height="78.188"/>
	<rect x="167.848" y="706.234" fill="#9F2F43" width="259.584" height="135.656"/>
	<rect x="235.09" y="47.499" fill="#9F2F43" width="125.101" height="23.456"/>
	<polygon fill="#9F2F43" points="344.553,47.499 250.727,47.499 297.64,0 	"/>
	<rect x="250.727" y="70.956" fill="#F6F4CA" width="93.826" height="101.644"/>
	<g>
		<polygon fill="#F6F4CA" points="211.633,706.234 383.647,706.234 378.565,623.941 216.715,623.941 		"/>
		<polygon fill="#F6F4CA" points="369.378,472.647 226.098,472.647 221.016,552.985 374.264,552.985 		"/>
		<polygon fill="#F6F4CA" points="359.995,321.548 235.285,321.548 230.398,401.887 364.882,401.887 		"/>
		<polygon fill="#9F2F43" points="355.695,250.788 239.585,250.788 235.285,321.548 359.995,321.548 		"/>
		<polygon fill="#9F2F43" points="364.882,401.887 230.398,401.887 226.098,472.647 369.378,472.647 		"/>
		<polygon fill="#9F2F43" points="374.264,552.985 221.016,552.985 216.715,623.941 378.565,623.941 		"/>
	</g>
</g>
</svg>
