<?xml version="1.0" encoding="utf-8"?>
<!-- Generator: Adobe Illustrator 17.1.0, SVG Export Plug-In . SVG Version: 6.00 Build 0)  -->
<!DOCTYPE svg PUBLIC "-//W3C//DTD SVG 1.1 Tiny//EN" "http://www.w3.org/Graphics/SVG/1.1/DTD/svg11-tiny.dtd">
<svg version="1.1" baseProfile="tiny" id="Layer_1" xmlns="http://www.w3.org/2000/svg" xmlns:xlink="http://www.w3.org/1999/xlink"
	 x="0px" y="0px" viewBox="0 0 132.8 430.7" xml:space="preserve">
<g>
	<rect x="28.4" y="88.3" fill="#9F2F43" width="76" height="40"/>
	<rect y="361.3" fill="#9F2F43" width="132.8" height="69.4"/>
	<rect x="34.4" y="24.3" fill="#9F2F43" width="64" height="12"/>
	<polygon fill="#9F2F43" points="90.4,24.3 42.4,24.3 66.4,0 	"/>
	<rect x="42.4" y="36.3" fill="#ECECE6" width="48" height="52"/>
	<g>
		<polygon fill="#ECECE6" points="22.4,361.3 110.4,361.3 107.8,319.2 25,319.2 		"/>
		<polygon fill="#ECECE6" points="103.1,241.8 29.8,241.8 27.2,282.9 105.6,282.9 		"/>
		<polygon fill="#ECECE6" points="98.3,164.5 34.5,164.5 32,205.6 100.8,205.6 		"/>
		<polygon fill="#9F2F43" points="96.1,128.3 36.7,128.3 34.5,164.5 98.3,164.5 		"/>
		<polygon fill="#9F2F43" points="100.8,205.6 32,205.6 29.8,241.8 103.1,241.8 		"/>
		<polygon fill="#9F2F43" points="105.6,282.9 27.2,282.9 25,319.2 107.8,319.2 		"/>
	</g>
</g>
</svg>
