<?xml version="1.0" encoding="utf-8"?>
<!-- Generator: Adobe Illustrator 17.0.0, SVG Export Plug-In . SVG Version: 6.00 Build 0)  -->
<!DOCTYPE svg PUBLIC "-//W3C//DTD SVG 1.1//EN" "http://www.w3.org/Graphics/SVG/1.1/DTD/svg11.dtd">
<svg version="1.1" id="Layer_1" xmlns="http://www.w3.org/2000/svg" xmlns:xlink="http://www.w3.org/1999/xlink" x="0px" y="0px"
	 width="595.28px" height="841.89px" viewBox="0 0 595.28 841.89" enable-background="new 0 0 595.28 841.89" xml:space="preserve">
<g>
	<path fill="#9F2F43" d="M511.532,108.561C394.363-8.608,204.849-8.608,87.68,108.561s-117.169,306.683,0,423.852l161.205,161.205
		h101.441l161.205-161.205C628.701,415.637,628.701,225.729,511.532,108.561z"/>
</g>
<rect x="261.467" y="770.289" fill="#D5D49B" width="76.278" height="50.721"/>
<path fill="#7ED1DA" d="M0.393,326.384c0.393,17.693,1.966,35.78,5.505,53.08h587.81c3.539-17.693,5.111-35.387,5.505-53.08H0.393z"
	/>
<path fill="#7ED1DA" d="M21.625,432.544c7.47,18.48,16.514,36.173,27.916,53.08h500.13c11.402-16.907,20.446-34.6,27.916-53.08
	H21.625z"/>
<polygon fill="#7ED1DA" points="452.161,592.177 505.241,539.097 94.364,539.097 147.444,592.177 "/>
<polygon fill="#7ED1DA" points="398.688,645.256 200.524,645.256 249.278,694.011 350.327,694.011 "/>
<path fill="#7ED1DA" d="M18.086,218.259c-6.291,17.693-10.616,35.387-13.761,53.473H595.28c-3.145-18.086-7.47-35.78-13.761-53.08
	H18.086V218.259z"/>
<path fill="#7ED1DA" d="M84.928,112.099c-16.121,16.514-29.489,34.207-40.891,53.08h511.925
	c-11.402-18.873-25.164-36.566-40.891-53.08H84.928z"/>
<path fill="#7ED1DA" d="M154.128,59.019h291.349C355.045,8.692,244.56,8.692,154.128,59.019z"/>
</svg>
