<?xml version="1.0" encoding="utf-8"?>
<!-- Generator: Adobe Illustrator 16.0.0, SVG Export Plug-In . SVG Version: 6.00 Build 0)  -->
<!DOCTYPE svg PUBLIC "-//W3C//DTD SVG 1.1 Tiny//EN" "http://www.w3.org/Graphics/SVG/1.1/DTD/svg11-tiny.dtd">
<svg version="1.1" baseProfile="tiny" id="Layer_1" xmlns="http://www.w3.org/2000/svg" xmlns:xlink="http://www.w3.org/1999/xlink"
	 x="0px" y="0px" width="10.254px" height="9.654px" viewBox="0 0 10.254 9.654" xml:space="preserve">
<path fill="#A5CFD2" d="M8.432,1.545c1.002,0,1.822,0.899,1.822,2v2.563c0,1.1-0.82,2-1.822,2s-1.822-0.9-1.822-2V3.545
	C6.61,2.444,7.43,1.545,8.432,1.545"/>
<path fill="#74A3A8" d="M3.216,0c0.55,0,1,0.45,1,1v7.654c0,0.55-0.45,1-1,1H1c-0.55,0-1-0.45-1-1V1c0-0.55,0.45-1,1-1H3.216z"/>
<path fill="#A5CFD2" d="M5.325,0c0.549,0,1,0.45,1,1v7.654c0,0.55-0.451,1-1,1H5.215c-0.549,0-1-0.45-1-1V1c0-0.55,0.45-1,1-1H5.325
	z"/>
<path fill="#74A3A8" d="M7.432,0c0.549,0,1,0.45,1,1v7.654c0,0.55-0.451,1-1,1H7.325c-0.551,0-1-0.45-1-1V1c0-0.55,0.449-1,1-1
	H7.432z"/>
</svg>
