<?xml version="1.0" encoding="utf-8"?>
<!-- Generator: Adobe Illustrator 16.0.0, SVG Export Plug-In . SVG Version: 6.00 Build 0)  -->
<!DOCTYPE svg PUBLIC "-//W3C//DTD SVG 1.1//EN" "http://www.w3.org/Graphics/SVG/1.1/DTD/svg11.dtd">
<svg version="1.1" id="Layer_1" xmlns="http://www.w3.org/2000/svg" xmlns:xlink="http://www.w3.org/1999/xlink" x="0px" y="0px"
	 width="595.279px" height="841.89px" viewBox="0 0 595.279 841.89" enable-background="new 0 0 595.279 841.89"
	 xml:space="preserve">
<path fill="#D3D1BB" d="M47.497,52.511c0,2.2-1.797,4-4,4H4c-2.199,0-4-1.8-4-4V4c0-2.2,1.803-4,4-4h39.497c2.205,0,4,1.8,4,4
	V52.511z"/>
<path fill="#362C2D" d="M10.439,8.806c0,1.13-0.916,2.046-2.049,2.046c-1.129,0-2.047-0.916-2.047-2.046
	c0-1.132,0.918-2.048,2.047-2.048C9.523,6.756,10.439,7.672,10.439,8.806"/>
<path fill="#362C2D" d="M10.439,47.709c0,1.128-0.916,2.048-2.049,2.048c-1.129,0-2.047-0.916-2.047-2.048
	c0-1.13,0.918-2.05,2.047-2.05C9.523,45.659,10.439,46.579,10.439,47.709"/>
<path fill="#362C2D" d="M41.153,8.806c0,1.13-0.918,2.046-2.051,2.046c-1.123,0-2.047-0.916-2.047-2.046
	c0-1.132,0.918-2.048,2.047-2.048C40.239,6.756,41.153,7.672,41.153,8.806"/>
<path fill="#362C2D" d="M41.153,47.709c0,1.128-0.918,2.048-2.051,2.048c-1.123,0-2.047-0.916-2.047-2.048
	c0-1.13,0.918-2.05,2.047-2.05C40.239,45.659,41.153,46.579,41.153,47.709"/>
<path fill="#362C2D" d="M29.416,19.962c0,3.13-2.535,5.668-5.668,5.668c-3.131,0-5.67-2.536-5.67-5.668
	c0-3.132,2.537-5.668,5.668-5.668C26.879,14.294,29.416,16.83,29.416,19.962"/>
<polygon fill="#362C2D" points="31.223,42.223 16.276,42.223 19.823,24.094 27.678,24.094 "/>
</svg>
