<?xml version="1.0" encoding="utf-8"?>
<!-- Generator: Adobe Illustrator 17.0.0, SVG Export Plug-In . SVG Version: 6.00 Build 0)  -->
<!DOCTYPE svg PUBLIC "-//W3C//DTD SVG 1.1//EN" "http://www.w3.org/Graphics/SVG/1.1/DTD/svg11.dtd">
<svg version="1.1" id="Layer_1" xmlns="http://www.w3.org/2000/svg" xmlns:xlink="http://www.w3.org/1999/xlink" x="0px" y="0px"
	 width="32.047px" height="30.214px" viewBox="0 0 32.047 30.214" enable-background="new 0 0 32.047 30.214" xml:space="preserve">
<path fill="#EB3566" d="M10.128,27.597c-2.229-2.92-1.666-7.092,1.252-9.319c2.92-2.229,7.092-1.666,9.321,1.254
	c2.227,2.918,1.668,7.092-1.252,9.317C16.527,31.077,12.355,30.519,10.128,27.597"/>
<path fill="#363537" d="M18.789,26.651c-0.568-0.066-0.889-1.298-0.721-2.75c0.17-1.454,0.768-2.578,1.334-2.513
	c0.566,0.066,0.891,1.299,0.721,2.75C19.955,25.593,19.357,26.717,18.789,26.651"/>
<path fill="#7ED1DA" d="M20.144,16.962c-5.772,4.794-13.927,4.492-13.927,4.492s1.2-8.072,6.972-12.866
	C18.96,3.794,32.046,0,32.046,0S25.917,12.168,20.144,16.962"/>
<path fill="#F6F4CA" d="M11.622,19.727c-3.432,1.306-7.273-0.416-8.58-3.848c-1.306-3.433,0.416-7.274,3.849-8.58
	c3.432-1.309,7.273,0.416,8.579,3.848C16.779,14.578,15.054,18.421,11.622,19.727"/>
<path fill="#363537" d="M13.176,11.153c-0.224,0.525-1.498,0.485-2.842-0.09C8.987,10.489,8.08,9.597,8.306,9.071
	c0.224-0.526,1.496-0.486,2.842,0.09C12.491,9.735,13.399,10.627,13.176,11.153"/>
<path fill="#F6F4CA" d="M5.719,29.817c-3.637-0.514-6.166-3.88-5.652-7.517c0.516-3.636,3.88-6.166,7.516-5.651
	c3.637,0.516,6.166,3.88,5.652,7.516C12.719,27.801,9.354,30.331,5.719,29.817"/>
<path fill="#363537" d="M11.222,23.062c-0.45,0.352-1.546-0.298-2.444-1.452c-0.899-1.154-1.264-2.374-0.813-2.724
	c0.45-0.353,1.546,0.298,2.446,1.451C11.308,21.49,11.672,22.71,11.222,23.062"/>
</svg>
