<?xml version="1.0" encoding="utf-8"?>
<!-- Generator: Adobe Illustrator 16.0.0, SVG Export Plug-In . SVG Version: 6.00 Build 0)  -->
<!DOCTYPE svg PUBLIC "-//W3C//DTD SVG 1.1 Tiny//EN" "http://www.w3.org/Graphics/SVG/1.1/DTD/svg11-tiny.dtd">
<svg version="1.1" baseProfile="tiny" id="Layer_1" xmlns="http://www.w3.org/2000/svg" xmlns:xlink="http://www.w3.org/1999/xlink"
	 x="0px" y="0px" width="26.456px" height="18.582px" viewBox="-1.526 2.852 26.456 18.582" xml:space="preserve">
<path fill="#7ED1DA" d="M11.701,21.434c0,0-4.818-5.779-4.818-10.337c0-4.554,4.817-8.245,4.817-8.245s4.819,3.691,4.818,8.246
	C16.518,15.653,11.701,21.434,11.701,21.434"/>
<path fill="#57979E" d="M11.701,21.434c0,0,0.68-7.493,3.903-10.715c3.219-3.219,9.238-2.426,9.238-2.426s0.793,6.018-2.426,9.237
	C19.195,20.753,11.701,21.434,11.701,21.434"/>
<path fill="#57979E" d="M11.701,21.434c0,0-7.495-0.681-10.717-3.902c-3.219-3.22-2.424-9.238-2.424-9.238s6.019-0.795,9.238,2.424
	C11.021,13.938,11.701,21.434,11.701,21.434"/>
</svg>
