<?xml version="1.0" encoding="utf-8"?>
<!-- Generator: Adobe Illustrator 17.0.0, SVG Export Plug-In . SVG Version: 6.00 Build 0)  -->
<!DOCTYPE svg PUBLIC "-//W3C//DTD SVG 1.1//EN" "http://www.w3.org/Graphics/SVG/1.1/DTD/svg11.dtd">
<svg version="1.1" id="Layer_1" xmlns="http://www.w3.org/2000/svg" xmlns:xlink="http://www.w3.org/1999/xlink" x="0px" y="0px"
	 width="44px" height="22.033px" viewBox="0 0 44 22.033" enable-background="new 0 0 44 22.033" xml:space="preserve">
<path fill="#F6F4CA" d="M44,5.07c0,1.691-9.85,3.062-22,3.062C9.219,8.133,0,6.762,0,5.07c0-1.693,9.85-3.064,22-3.064
	C34.15,2.006,44,3.377,44,5.07"/>
<path fill="#EB3566" d="M32.406,8.146c0,4.5-2.33,8.145-5.203,8.145s-5.204-3.645-5.204-8.145S24.33,0,27.203,0
	S32.406,3.646,32.406,8.146"/>
<path fill="#D5D49B" d="M0,5.098c0,0,3,3.035,22,3.035c20,0,22-3.035,22-3.035c0,9.354-9.85,16.936-22,16.936
	C9.85,22.033,0,14.451,0,5.098"/>
</svg>
