<?xml version="1.0" encoding="utf-8"?>
<!-- Generator: Adobe Illustrator 17.0.0, SVG Export Plug-In . SVG Version: 6.00 Build 0)  -->
<!DOCTYPE svg PUBLIC "-//W3C//DTD SVG 1.1//EN" "http://www.w3.org/Graphics/SVG/1.1/DTD/svg11.dtd">
<svg version="1.1" id="Layer_1" xmlns="http://www.w3.org/2000/svg" xmlns:xlink="http://www.w3.org/1999/xlink" x="0px" y="0px"
	 width="595.28px" height="841.89px" viewBox="0 0 595.28 841.89" enable-background="new 0 0 595.28 841.89" xml:space="preserve">
<path fill="#D5D49B" d="M15.368,40.335c0,0,10.408,2.237,16.244,18.092L28.694,59.4c0,0-9.435-0.195-16.341-3.113
	c-9.727-4.183-8.56-12.937-8.56-12.937L15.368,40.335z"/>
<path fill="#D5D49B" d="M9.532,35.764c-3.307,0-5.836,2.626-5.836,5.836s2.626,7.587,5.836,7.587c0,0,12.061-5.447,9.435-7.295
	C14.396,38.682,12.742,35.764,9.532,35.764z"/>
<polygon fill="#F6F4CA" points="5.252,41.6 3.793,43.351 0,43.156 4.377,40.335 "/>
</svg>
