<?xml version="1.0" encoding="utf-8"?>
<!-- Generator: Adobe Illustrator 16.0.0, SVG Export Plug-In . SVG Version: 6.00 Build 0)  -->
<!DOCTYPE svg PUBLIC "-//W3C//DTD SVG 1.1 Tiny//EN" "http://www.w3.org/Graphics/SVG/1.1/DTD/svg11-tiny.dtd">
<svg version="1.1" baseProfile="tiny" id="Layer_1" xmlns="http://www.w3.org/2000/svg" xmlns:xlink="http://www.w3.org/1999/xlink"
	 x="0px" y="0px" width="595.28px" height="841.89px" viewBox="0 0 595.28 841.89" xml:space="preserve">
<rect x="37.701" y="17.609" fill="#74A2A7" width="105.405" height="5.573"/>
<path fill="#74A2A7" d="M145.895,20.398c0,1.542-1.25,2.792-2.789,2.792s-2.789-1.25-2.789-2.792c0-1.539,1.25-2.789,2.789-2.789
	S145.895,18.859,145.895,20.398"/>
<polygon fill="#74A2A7" points="114.982,23.182 114.982,36.611 118.021,36.611 118.021,27.495 121.06,27.495 121.06,36.611 
	124.099,36.611 124.099,27.495 127.146,27.495 127.146,36.611 138.293,36.611 138.293,23.182 "/>
<path fill="#74A2A7" d="M20.396,0C9.133,0,0,9.133,0,20.398c0,11.268,9.133,20.4,20.396,20.4c11.263,0,20.396-9.132,20.396-20.4
	C40.792,9.133,31.66,0,20.396,0 M20.396,35.947c-8.953,0-16.209-6.96-16.209-15.548c0-8.586,7.256-15.547,16.209-15.547
	c8.951,0,16.207,6.961,16.207,15.547C36.603,28.987,29.347,35.947,20.396,35.947"/>
<path fill="#74A2A7" d="M51.417,20.398c0,3.932-3.191,7.127-7.129,7.127c-3.936,0-7.127-3.195-7.127-7.127
	c0-3.938,3.191-7.129,7.127-7.129C48.226,13.27,51.417,16.461,51.417,20.398"/>
</svg>
