<?xml version="1.0" encoding="utf-8"?>
<!-- Generator: Adobe Illustrator 16.0.0, SVG Export Plug-In . SVG Version: 6.00 Build 0)  -->
<!DOCTYPE svg PUBLIC "-//W3C//DTD SVG 1.1//EN" "http://www.w3.org/Graphics/SVG/1.1/DTD/svg11.dtd">
<svg version="1.1" id="Layer_1" xmlns="http://www.w3.org/2000/svg" xmlns:xlink="http://www.w3.org/1999/xlink" x="0px" y="0px"
	 width="595.279px" height="841.89px" viewBox="0 0 595.279 841.89" enable-background="new 0 0 595.279 841.89"
	 xml:space="preserve">
<path fill="#EE6786" d="M47.497,52.505c0,2.2-1.797,4-4,4H4c-2.203,0-4-1.8-4-4V4c0-2.2,1.797-4,4-4h39.497c2.203,0,4,1.8,4,4
	V52.505z"/>
<path fill="#362C2D" d="M10.439,8.802c0,1.134-0.916,2.05-2.047,2.05c-1.126,0-2.046-0.916-2.046-2.05
	c0-1.13,0.92-2.046,2.046-2.046C9.523,6.756,10.439,7.672,10.439,8.802"/>
<path fill="#362C2D" d="M10.439,47.705c0,1.128-0.916,2.046-2.047,2.046c-1.126,0-2.046-0.918-2.046-2.046
	c0-1.134,0.92-2.052,2.046-2.052C9.523,45.653,10.439,46.571,10.439,47.705"/>
<path fill="#362C2D" d="M41.154,8.802c0,1.134-0.914,2.05-2.046,2.05c-1.127,0-2.047-0.916-2.047-2.05
	c0-1.13,0.92-2.046,2.047-2.046C40.24,6.756,41.154,7.672,41.154,8.802"/>
<path fill="#362C2D" d="M41.154,47.705c0,1.128-0.914,2.046-2.046,2.046c-1.127,0-2.047-0.918-2.047-2.046
	c0-1.134,0.92-2.052,2.047-2.052C40.24,45.653,41.154,46.571,41.154,47.705"/>
<path fill="#362C2D" d="M29.418,19.959c0,3.13-2.539,5.668-5.668,5.668c-3.133,0-5.668-2.538-5.668-5.668
	c0-3.132,2.535-5.668,5.668-5.668C26.881,14.292,29.418,16.828,29.418,19.959"/>
<polygon fill="#362C2D" points="31.22,42.215 16.277,42.215 19.824,24.093 27.677,24.093 "/>
</svg>
