<?xml version="1.0" encoding="utf-8"?>
<!-- Generator: Adobe Illustrator 16.0.0, SVG Export Plug-In . SVG Version: 6.00 Build 0)  -->
<!DOCTYPE svg PUBLIC "-//W3C//DTD SVG 1.1//EN" "http://www.w3.org/Graphics/SVG/1.1/DTD/svg11.dtd">
<svg version="1.1" id="Layer_1" xmlns="http://www.w3.org/2000/svg" xmlns:xlink="http://www.w3.org/1999/xlink" x="0px" y="0px"
	 width="595.279px" height="841.89px" viewBox="0 0 595.279 841.89" enable-background="new 0 0 595.279 841.89"
	 xml:space="preserve">
<path fill="#74A2A7" d="M47.497,52.509c0,2.2-1.797,4-4,4H4.001c-2.2,0-4-1.801-4-4V4c0-2.2,1.801-4,4-4h39.496c2.204,0,4,1.801,4,4
	V52.509z"/>
<path fill="#362C2D" d="M10.439,8.806c0,1.131-0.914,2.047-2.047,2.047c-1.129,0-2.047-0.916-2.047-2.047
	c0-1.133,0.918-2.049,2.047-2.049C9.525,6.756,10.439,7.672,10.439,8.806"/>
<path fill="#362C2D" d="M10.439,47.708c0,1.129-0.914,2.049-2.047,2.049c-1.129,0-2.047-0.916-2.047-2.049
	c0-1.131,0.918-2.051,2.047-2.051C9.525,45.657,10.439,46.577,10.439,47.708"/>
<path fill="#362C2D" d="M41.153,8.806c0,1.131-0.918,2.047-2.051,2.047c-1.125,0-2.047-0.916-2.047-2.047
	c0-1.133,0.918-2.049,2.047-2.049C40.239,6.756,41.153,7.672,41.153,8.806"/>
<path fill="#362C2D" d="M41.153,47.708c0,1.129-0.918,2.049-2.051,2.049c-1.125,0-2.047-0.916-2.047-2.049
	c0-1.131,0.918-2.051,2.047-2.051C40.239,45.657,41.153,46.577,41.153,47.708"/>
<path fill="#362C2D" d="M29.417,19.963c0,3.131-2.535,5.668-5.668,5.668s-5.668-2.537-5.668-5.668c0-3.133,2.535-5.668,5.668-5.668
	S29.417,16.83,29.417,19.963"/>
<polygon fill="#362C2D" points="31.222,42.221 16.275,42.221 19.823,24.094 27.679,24.094 "/>
</svg>
