<?xml version="1.0" encoding="utf-8"?>
<!-- Generator: Adobe Illustrator 16.0.0, SVG Export Plug-In . SVG Version: 6.00 Build 0)  -->
<!DOCTYPE svg PUBLIC "-//W3C//DTD SVG 1.1//EN" "http://www.w3.org/Graphics/SVG/1.1/DTD/svg11.dtd">
<svg version="1.1" id="Layer_1" xmlns="http://www.w3.org/2000/svg" xmlns:xlink="http://www.w3.org/1999/xlink" x="0px" y="0px"
	 width="69.539px" height="69.546px" viewBox="0 0 69.539 69.546" enable-background="new 0 0 69.539 69.546" xml:space="preserve">
<path fill="#A5CFD2" d="M18.294,38.056c-1.002,0-1.822-0.899-1.822-1.999v-2.564c0-1.1,0.82-2,1.822-2s1.822,0.9,1.822,2v2.564
	C20.116,37.157,19.296,38.056,18.294,38.056"/>
<path fill="#74A3A8" d="M23.511,39.601c-0.551,0-1-0.449-1-1v-7.653c0-0.551,0.449-1,1-1h2.215c0.551,0,1,0.449,1,1v7.653
	c0,0.551-0.449,1-1,1H23.511z"/>
<path fill="#A5CFD2" d="M21.402,39.601c-0.55,0-1-0.449-1-1v-7.653c0-0.551,0.45-1,1-1h0.107c0.55,0,1,0.449,1,1v7.653
	c0,0.551-0.45,1-1,1H21.402z"/>
<path fill="#74A3A8" d="M19.294,39.601c-0.55,0-1-0.449-1-1v-7.653c0-0.551,0.45-1,1-1h0.107c0.551,0,1,0.449,1,1v7.653
	c0,0.551-0.449,1-1,1H19.294z"/>
<g opacity="0.5">
	<g>
		<defs>
			<rect id="SVGID_1_" width="69.539" height="69.546"/>
		</defs>
		<clipPath id="SVGID_2_">
			<use xlink:href="#SVGID_1_"  overflow="visible"/>
		</clipPath>
		<path clip-path="url(#SVGID_2_)" fill="#A5CFD2" d="M69.547,34.775c0,19.203-15.566,34.773-34.771,34.773
			c-19.206,0-34.774-15.57-34.774-34.773C0.001,15.57,15.569,0,34.775,0C53.98,0,69.547,15.57,69.547,34.775"/>
	</g>
</g>
<path fill="#A5CFD2" d="M34.774,45.435c-5.887,0-10.66-4.773-10.66-10.661c0-5.886,4.773-10.659,10.66-10.659
	c5.886,0,10.659,4.773,10.659,10.659C45.434,40.662,40.66,45.435,34.774,45.435"/>
</svg>
