<?xml version="1.0" encoding="utf-8"?>
<!-- Generator: Adobe Illustrator 16.0.0, SVG Export Plug-In . SVG Version: 6.00 Build 0)  -->
<!DOCTYPE svg PUBLIC "-//W3C//DTD SVG 1.1//EN" "http://www.w3.org/Graphics/SVG/1.1/DTD/svg11.dtd">
<svg version="1.1" id="Layer_1" xmlns="http://www.w3.org/2000/svg" xmlns:xlink="http://www.w3.org/1999/xlink" x="0px" y="0px"
	 width="28.962px" height="21.316px" viewBox="0 0 28.962 21.316" enable-background="new 0 0 28.962 21.316" xml:space="preserve">
<path fill="#A5CFD2" d="M1.822,13.939c-1.002,0-1.822-0.9-1.822-2V9.377c0-1.102,0.82-2,1.822-2s1.822,0.898,1.822,2v2.562
	C3.645,13.039,2.824,13.939,1.822,13.939"/>
<path fill="#74A3A8" d="M7.039,15.484c-0.551,0-1-0.449-1-1V6.83c0-0.549,0.449-1,1-1h2.215c0.551,0,1,0.451,1,1v7.654
	c0,0.551-0.449,1-1,1H7.039z"/>
<path fill="#A5CFD2" d="M4.931,15.484c-0.55,0-1-0.449-1-1V6.83c0-0.549,0.45-1,1-1h0.107c0.55,0,1,0.451,1,1v7.654
	c0,0.551-0.45,1-1,1H4.931z"/>
<path fill="#74A3A8" d="M2.822,15.484c-0.55,0-1-0.449-1-1V6.83c0-0.549,0.45-1,1-1H2.93c0.551,0,1,0.451,1,1v7.654
	c0,0.551-0.449,1-1,1H2.822z"/>
<path fill="#A5CFD2" d="M18.302,21.316c-5.886,0-10.659-4.771-10.659-10.66C7.643,4.771,12.416,0,18.302,0
	c5.887,0,10.66,4.771,10.66,10.656C28.962,16.545,24.188,21.316,18.302,21.316"/>
</svg>
