<?xml version="1.0" encoding="utf-8"?>
<!-- Generator: Adobe Illustrator 17.0.0, SVG Export Plug-In . SVG Version: 6.00 Build 0)  -->
<!DOCTYPE svg PUBLIC "-//W3C//DTD SVG 1.1//EN" "http://www.w3.org/Graphics/SVG/1.1/DTD/svg11.dtd">
<svg version="1.1" id="Layer_1" xmlns="http://www.w3.org/2000/svg" xmlns:xlink="http://www.w3.org/1999/xlink" x="0px" y="0px"
	 width="595.28px" height="841.89px" viewBox="0 0 595.28 841.89" enable-background="new 0 0 595.28 841.89" xml:space="preserve">
<rect x="154.011" y="409.697" fill="#7ED1DA" width="430.309" height="22.496"/>
<path fill="#7ED1DA" d="M595.28,420.657c0,6.345-5.191,11.536-11.536,11.536s-11.536-5.191-11.536-11.536
	c0-6.345,5.191-11.536,11.536-11.536C590.089,409.697,595.28,414.312,595.28,420.657"/>
<polygon fill="#7ED1DA" points="469.533,432.193 469.533,486.991 481.646,486.991 481.646,449.498 494.336,449.498 494.336,486.991 
	506.45,486.991 506.45,449.498 519.14,449.498 519.14,486.991 564.132,486.991 564.132,432.193 "/>
<path fill="#7ED1DA" d="M83.062,337.594C37.493,337.594,0,375.088,0,420.657c0,46.146,37.493,83.062,83.062,83.062
	c46.146,0,83.062-37.493,83.062-83.062C166.701,375.088,129.208,337.594,83.062,337.594 M83.062,484.107l-65.758-63.45l66.335-63.45
	l66.335,63.45L83.062,484.107z"/>
<rect x="265.915" y="383.74" fill="#7ED1DA" width="16.728" height="74.41"/>
<rect x="228.998" y="383.74" fill="#7ED1DA" width="16.728" height="74.41"/>
</svg>
