<?xml version="1.0" encoding="utf-8"?>
<!-- Generator: Adobe Illustrator 16.0.0, SVG Export Plug-In . SVG Version: 6.00 Build 0)  -->
<!DOCTYPE svg PUBLIC "-//W3C//DTD SVG 1.1//EN" "http://www.w3.org/Graphics/SVG/1.1/DTD/svg11.dtd">
<svg version="1.1" id="Layer_1" xmlns="http://www.w3.org/2000/svg" xmlns:xlink="http://www.w3.org/1999/xlink" x="0px" y="0px"
	 width="595.279px" height="841.89px" viewBox="0 0 595.279 841.89" enable-background="new 0 0 595.279 841.89"
	 xml:space="preserve">
<rect x="26.676" y="12.461" fill="#A5CED1" width="74.578" height="3.939"/>
<path fill="#A5CED1" d="M103.227,14.432c0,1.088-0.887,1.973-1.973,1.973c-1.082,0-1.969-0.885-1.969-1.973s0.887-1.971,1.969-1.971
	C102.34,12.461,103.227,13.344,103.227,14.432"/>
<polygon fill="#A5CED1" points="81.356,16.404 81.356,25.904 83.504,25.904 83.504,19.447 85.664,19.447 85.664,25.904 
	87.813,25.904 87.813,19.447 89.961,19.447 89.961,25.904 97.848,25.904 97.848,16.404 "/>
<path fill="#A5CED1" d="M14.43,0C6.461,0,0,6.465,0,14.432c0,7.973,6.461,14.432,14.43,14.432c7.973,0,14.434-6.459,14.434-14.432
	C28.864,6.465,22.403,0,14.43,0 M14.43,25.432l-11.465-11l11.465-11l11.469,11L14.43,25.432z"/>
<rect x="46.141" y="7.973" fill="#A5CED1" width="2.895" height="12.916"/>
<rect x="39.672" y="7.973" fill="#A5CED1" width="2.895" height="12.916"/>
</svg>
