<?xml version="1.0" encoding="utf-8"?>
<!-- Generator: Adobe Illustrator 17.1.0, SVG Export Plug-In . SVG Version: 6.00 Build 0)  -->
<!DOCTYPE svg PUBLIC "-//W3C//DTD SVG 1.1//EN" "http://www.w3.org/Graphics/SVG/1.1/DTD/svg11.dtd">
<svg version="1.1" id="Layer_1" xmlns="http://www.w3.org/2000/svg" xmlns:xlink="http://www.w3.org/1999/xlink" x="0px" y="0px"
	 viewBox="0 0 103.2 28.9" enable-background="new 0 0 103.2 28.9" xml:space="preserve">
<rect x="26.7" y="12.5" fill="#7ED1DA" width="74.6" height="3.9"/>
<path fill="#7ED1DA" d="M103.2,14.4c0,1.1-0.9,2-2,2c-1.1,0-2-0.9-2-2s0.9-2,2-2C102.3,12.5,103.2,13.3,103.2,14.4"/>
<polygon fill="#7ED1DA" points="81.4,16.4 81.4,25.9 83.5,25.9 83.5,19.4 85.7,19.4 85.7,25.9 87.8,25.9 87.8,19.4 90,19.4 90,25.9 
	97.8,25.9 97.8,16.4 "/>
<path fill="#7ED1DA" d="M14.4,0C6.5,0,0,6.5,0,14.4c0,8,6.5,14.4,14.4,14.4c8,0,14.4-6.5,14.4-14.4C28.9,6.5,22.4,0,14.4,0
	 M14.4,25.4L3,14.4l11.5-11l11.5,11L14.4,25.4z"/>
<rect x="46.1" y="8" fill="#7ED1DA" width="2.9" height="12.9"/>
<rect x="39.7" y="8" fill="#7ED1DA" width="2.9" height="12.9"/>
</svg>
