<?xml version="1.0" encoding="utf-8"?>
<!-- Generator: Adobe Illustrator 17.1.0, SVG Export Plug-In . SVG Version: 6.00 Build 0)  -->
<!DOCTYPE svg PUBLIC "-//W3C//DTD SVG 1.1//EN" "http://www.w3.org/Graphics/SVG/1.1/DTD/svg11.dtd">
<svg version="1.1" id="Layer_1" xmlns="http://www.w3.org/2000/svg" xmlns:xlink="http://www.w3.org/1999/xlink" x="0px" y="0px"
	 viewBox="0 0 145.9 40.8" enable-background="new 0 0 145.9 40.8" xml:space="preserve">
<rect x="37.7" y="17.6" fill="#57979E" width="105.4" height="5.6"/>
<path fill="#57979E" d="M145.9,20.4c0,1.5-1.2,2.8-2.8,2.8s-2.8-1.2-2.8-2.8c0-1.5,1.2-2.8,2.8-2.8S145.9,18.9,145.9,20.4"/>
<polygon fill="#57979E" points="115,23.2 115,36.6 118,36.6 118,27.5 121.1,27.5 121.1,36.6 124.1,36.6 124.1,27.5 127.1,27.5 
	127.1,36.6 138.3,36.6 138.3,23.2 "/>
<path fill="#57979E" d="M20.4,0C9.1,0,0,9.1,0,20.4c0,11.3,9.1,20.4,20.4,20.4s20.4-9.1,20.4-20.4C40.8,9.1,31.7,0,20.4,0
	 M20.4,35.9c-9,0-16.2-7-16.2-15.5c0-8.6,7.3-15.5,16.2-15.5c9,0,16.2,7,16.2,15.5C36.6,29,29.3,35.9,20.4,35.9"/>
<path fill="#57979E" d="M51.4,20.4c0,3.9-3.2,7.1-7.1,7.1c-3.9,0-7.1-3.2-7.1-7.1c0-3.9,3.2-7.1,7.1-7.1
	C48.2,13.3,51.4,16.5,51.4,20.4"/>
</svg>
