<?xml version="1.0" encoding="utf-8"?>
<!-- Generator: Adobe Illustrator 17.1.0, SVG Export Plug-In . SVG Version: 6.00 Build 0)  -->
<!DOCTYPE svg PUBLIC "-//W3C//DTD SVG 1.1 Tiny//EN" "http://www.w3.org/Graphics/SVG/1.1/DTD/svg11-tiny.dtd">
<svg version="1.1" baseProfile="tiny" id="Layer_1" xmlns="http://www.w3.org/2000/svg" xmlns:xlink="http://www.w3.org/1999/xlink"
	 x="0px" y="0px" viewBox="0 0 612 792" xml:space="preserve">
<path fill="#E9EAE3" d="M24.4,7.3c0,0,16.6,3.6,25.8,28.8l-4.8,3.9c0,0-10.4,4-24.6-4.9S6.1,12,6.1,12L24.4,7.3z"/>
<path fill="#74A3A8" d="M15.1,0C9.9,0,5.8,4.1,5.8,9.3s4.1,12,9.2,12c0,0,10.5-5.5,10.5-10.7S20.2,0,15.1,0z"/>
<path fill="#C9ACB7" d="M6.2,12C5.1,18.5,11,25.8,11,25.8h1.7c0,0-2.5-10.9,6.9-15.2L15.5,4H8.4L8,3.3C8,3.3,4.8,6.3,6.2,12z"/>
<polygon fill="#362C2D" points="8.4,9.3 6.1,12 0,11.8 7,7.3 "/>
<path fill="#74A3A8" d="M18.1,19.4l6.7-12.3c5.3,0.7,16,7.6,23.2,23.4C26.2,14.1,18.1,19.4,18.1,19.4z"/>
</svg>
