<?xml version="1.0" encoding="utf-8"?>
<!-- Generator: Adobe Illustrator 17.1.0, SVG Export Plug-In . SVG Version: 6.00 Build 0)  -->
<!DOCTYPE svg PUBLIC "-//W3C//DTD SVG 1.1 Tiny//EN" "http://www.w3.org/Graphics/SVG/1.1/DTD/svg11-tiny.dtd">
<svg version="1.1" baseProfile="tiny" id="Layer_1" xmlns="http://www.w3.org/2000/svg" xmlns:xlink="http://www.w3.org/1999/xlink"
	 x="0px" y="0px" viewBox="0 0 176.3 542.8" xml:space="preserve">
<g>
	<g>
		<ellipse fill="#98CACD" cx="106.9" cy="537.1" rx="39.9" ry="5.7"/>
		<polygon fill="#C8C7B2" points="58.5,42.6 39.1,159.2 44.2,163.8 63.3,71 		"/>
		<polygon fill="#CBCBB5" points="39.1,159.2 44.2,163.8 44.2,282.1 39.1,282.1 		"/>
		<polygon fill="#E1E4DC" points="107.7,18 58.5,42.8 81.7,179.7 107.7,179.7 133.7,179.7 156.8,42.8 		"/>
		<polygon fill="#B4CFC4" points="156.8,42.6 176.3,159.2 171.1,163.8 152,71 		"/>
		<polygon fill="#B4CFC4" points="176.3,159.2 171.1,163.8 171.1,282.1 176.3,282.1 		"/>
		<polygon fill="#98CACD" points="133.7,179.7 107.7,179.7 81.7,179.7 76.8,367.7 91.1,367.7 103.7,231.7 107.7,231.7 111.7,231.7 
			124.3,367.7 138.5,367.7 		"/>
		<polygon fill="#6DA0A4" points="138.5,366.7 129.4,537.1 125.1,537.1 124.3,366.7 		"/>
		<circle fill="#DDC7C3" cx="107.1" cy="18" r="18"/>
	</g>
	<rect x="135.6" y="301.5" fill="#BFA3AE" width="15" height="44.6"/>
	<rect x="135.6" y="301.5" fill="#F16D89" width="15" height="17.9"/>
	<rect x="74.2" y="105.8" fill="#2E262B" width="15" height="58.2"/>
	<rect x="74.2" y="105.8" fill="#F16D89" width="15" height="17.9"/>
	<rect x="53.2" y="70.8" fill="#2E262B" width="15" height="58.2"/>
	<rect x="53.2" y="70.8" fill="#F16D89" width="15" height="17.9"/>
	<rect x="134.4" y="38.6" fill="#BFA3AE" width="15" height="78.8"/>
	<rect x="134.4" y="38.6" fill="#F16D89" width="15" height="17.9"/>
	<rect x="89.1" y="73.9" fill="#2E262B" width="15" height="81.8"/>
	<rect x="89.1" y="73.9" fill="#F16D89" width="15" height="17.9"/>
	<rect x="104.2" y="18" fill="#B8545A" width="30.2" height="99.3"/>
	<rect x="104.2" y="18" fill="#F16D89" width="30.2" height="17.9"/>
	<g>
		<rect x="104.2" y="117.3" fill="#BFA3AE" width="15" height="26.4"/>
	</g>
	<rect x="122.5" y="264.1" fill="#2E262B" width="17.9" height="53.2"/>
	<rect x="122.5" y="264.1" fill="#F16D89" width="17.9" height="21.4"/>
	<polygon fill="#BFA3AE" points="135.6,467 126.1,481.9 126.1,503.2 145,503.2 145,481.9 	"/>
	<polygon fill="#B8545A" points="84.9,287.1 71.2,308.7 71.2,339.5 98.5,339.5 98.5,308.7 	"/>
	<polygon fill="#BFA3AE" points="90.2,21.9 76.6,43.5 76.6,74.2 103.9,74.2 103.9,43.5 	"/>
	<circle fill="#2E262B" cx="135.6" cy="482.1" r="3"/>
	<circle fill="#2E262B" cx="84.9" cy="309" r="4.3"/>
	<circle fill="#2E262B" cx="90.2" cy="56.7" r="6.3"/>
	<polygon fill="#F16D89" points="144.9,481.9 135.5,467 126.1,481.9 124.1,481.9 135.5,463.8 147.1,481.9 	"/>
	<polygon fill="#F16D89" points="98.4,308.7 84.8,287.1 71.1,308.7 68.2,308.7 84.8,282.5 101.5,308.7 	"/>
	<polygon fill="#F16D89" points="103.8,43.5 90.1,21.9 76.5,43.5 73.6,43.5 90.1,17.3 106.9,43.5 	"/>
	<g>
		<polygon fill="#6E9FA4" points="78.6,359.5 0,511.4 3.7,513.5 91,366.8 		"/>
		<g>
			
				<rect x="23.6" y="417.5" transform="matrix(0.863 0.5053 -0.5053 0.863 226.493 44.5298)" fill="#2E262B" width="15" height="44.6"/>
			
				<rect x="30.4" y="419.3" transform="matrix(0.863 0.5053 -0.5053 0.863 221.6046 39.5513)" fill="#F16D89" width="15" height="17.9"/>
		</g>
	</g>
</g>
</svg>
