<?xml version="1.0" encoding="utf-8"?>
<!-- Generator: Adobe Illustrator 17.0.0, SVG Export Plug-In . SVG Version: 6.00 Build 0)  -->
<!DOCTYPE svg PUBLIC "-//W3C//DTD SVG 1.1//EN" "http://www.w3.org/Graphics/SVG/1.1/DTD/svg11.dtd">
<svg version="1.1" id="Layer_1" xmlns="http://www.w3.org/2000/svg" xmlns:xlink="http://www.w3.org/1999/xlink" x="0px" y="0px"
	 width="595.28px" height="841.89px" viewBox="0 0 595.28 841.89" enable-background="new 0 0 595.28 841.89" xml:space="preserve">
<g>
	<path fill="#57979E" d="M16.341,38.39c-3.891-3.696-10.116-3.502-13.715,0.389C-1.07,42.67-0.875,48.895,3.015,52.494
		c3.891,3.599,10.116,3.502,13.715-0.389S20.329,42.086,16.341,38.39z M6.906,46.755c-0.681,0.681-1.654,0.681-2.334,0.097
		c-0.681-0.584-0.681-1.654-0.097-2.334c0.584-0.681,1.654-0.681,2.334-0.097C7.49,45.004,7.49,46.074,6.906,46.755z M10.991,50.646
		c-0.584,0.681-1.556,0.681-2.237,0.097c-0.681-0.584-0.681-1.654-0.097-2.334c0.584-0.681,1.654-0.681,2.334-0.097
		C11.672,48.992,11.672,49.965,10.991,50.646z M10.797,42.573c-0.584,0.681-1.654,0.681-2.334,0.097
		c-0.681-0.681-0.681-1.654,0-2.334c0.584-0.681,1.556-0.681,2.237-0.097C11.38,40.822,11.38,41.892,10.797,42.573z M14.979,46.463
		c-0.584,0.681-1.654,0.681-2.334,0.097s-0.681-1.654-0.097-2.334c0.681-0.681,1.654-0.681,2.334-0.097
		C15.563,44.81,15.563,45.782,14.979,46.463z"/>
</g>
</svg>
