<?xml version="1.0" encoding="utf-8"?>
<!-- Generator: Adobe Illustrator 17.1.0, SVG Export Plug-In . SVG Version: 6.00 Build 0)  -->
<!DOCTYPE svg PUBLIC "-//W3C//DTD SVG 1.1 Tiny//EN" "http://www.w3.org/Graphics/SVG/1.1/DTD/svg11-tiny.dtd">
<svg version="1.1" baseProfile="tiny" id="Layer_1" xmlns="http://www.w3.org/2000/svg" xmlns:xlink="http://www.w3.org/1999/xlink"
	 x="0px" y="0px" viewBox="0 0 612 792" xml:space="preserve">
<g>
	<path fill="#7ED1DA" d="M16.8,2.7c-4-3.8-10.4-3.6-14.1,0.4c-3.8,4-3.6,10.4,0.4,14.1s10.4,3.6,14.1-0.4S20.9,6.5,16.8,2.7z
		 M7.1,11.3C6.4,12,5.4,12,4.7,11.4S4,9.7,4.6,9C5.2,8.3,6.3,8.3,7,8.9C7.7,9.5,7.7,10.6,7.1,11.3z M11.3,15.3
		C10.7,16,9.7,16,9,15.4c-0.7-0.6-0.7-1.7-0.1-2.4c0.6-0.7,1.7-0.7,2.4-0.1C12,13.6,12,14.6,11.3,15.3z M11.1,7
		c-0.6,0.7-1.7,0.7-2.4,0.1C8,6.4,8,5.4,8.7,4.7C9.3,4,10.3,4,11,4.6C11.7,5.2,11.7,6.3,11.1,7z M15.4,11c-0.6,0.7-1.7,0.7-2.4,0.1
		c-0.7-0.6-0.7-1.7-0.1-2.4C13.6,8,14.6,8,15.3,8.6C16,9.3,16,10.3,15.4,11z"/>
</g>
</svg>
