<?xml version="1.0" encoding="utf-8"?>
<!-- Generator: Adobe Illustrator 17.0.0, SVG Export Plug-In . SVG Version: 6.00 Build 0)  -->
<!DOCTYPE svg PUBLIC "-//W3C//DTD SVG 1.1//EN" "http://www.w3.org/Graphics/SVG/1.1/DTD/svg11.dtd">
<svg version="1.1" id="Layer_1" xmlns="http://www.w3.org/2000/svg" xmlns:xlink="http://www.w3.org/1999/xlink" x="0px" y="0px"
	 width="595.28px" height="841.89px" viewBox="0 0 595.28 841.89" enable-background="new 0 0 595.28 841.89" xml:space="preserve">
<rect x="233.96" y="44.483" transform="matrix(-0.2447 -0.9696 0.9696 -0.2447 305.1228 330.1647)" fill="#57979E" width="94.395" height="3.514"/>
<g>
	<path fill="none" stroke="#9F2F43" stroke-width="4.0001" stroke-miterlimit="10" d="M309.539,47.916v30.826
		c0,0,20.923-12.299,24.118-19.007s0.479-14.694-6.229-18.048S312.734,41.208,309.539,47.916z"/>
	<polygon fill="#9F2F43" points="275.359,93.437 307.623,93.916 316.727,26.833 268.171,26.194 	"/>
</g>
<g>
	<path fill="none" stroke="#363537" stroke-width="4.0001" stroke-miterlimit="10" d="M274.72,101.263l-0.479,30.826
		c0,0-20.764-12.618-23.958-19.326c-3.194-6.708-0.16-14.694,6.549-17.889C263.54,91.68,271.685,94.555,274.72,101.263z"/>
	<polygon fill="#363537" points="308.261,147.263 275.998,147.263 267.852,80.18 316.567,80.18 	"/>
</g>
<g>
	<path fill="none" stroke="#F6F4CA" stroke-width="4.0001" stroke-miterlimit="10" d="M274.72,220.255l-0.479,30.826
		c0,0-20.764-12.618-23.958-19.326c-3.194-6.708-0.16-14.694,6.549-17.889C263.54,210.672,271.685,213.547,274.72,220.255z"/>
	<polygon fill="#F6F4CA" points="308.261,266.255 275.998,266.255 267.852,199.013 316.567,199.013 	"/>
</g>
<g>
	<path fill="none" stroke="#F6F4CA" stroke-width="4.0001" stroke-miterlimit="10" d="M309.859,160.2l0.479,30.826
		c0,0,20.764-12.618,23.958-19.326c3.194-6.708,0.16-14.694-6.549-17.889C321.039,150.617,313.053,153.492,309.859,160.2z"/>
	<polygon fill="#F6F4CA" points="276.317,206.36 308.741,206.36 316.886,139.117 268.171,139.117 	"/>
</g>
<g>
	<path fill="none" stroke="#57979E" stroke-width="4.0001" stroke-miterlimit="10" d="M274.72,279.831l-0.479,30.826
		c0,0-20.764-12.618-23.958-19.326c-3.194-6.708-0.16-14.694,6.549-17.889C263.54,270.248,271.685,273.123,274.72,279.831z"/>
	<polygon fill="#57979E" points="308.261,325.831 275.998,325.831 267.852,258.748 316.567,258.748 	"/>
</g>
<g>
	<path fill="none" stroke="#F6F4CA" stroke-width="4.0001" stroke-miterlimit="10" d="M309.859,340.845l0.479,30.826
		c0,0,20.764-12.618,23.958-19.326c3.194-6.708,0.16-14.694-6.549-17.889S313.053,334.137,309.859,340.845z"/>
	<polygon fill="#F6F4CA" points="276.317,386.845 308.741,386.845 316.886,319.762 268.171,319.762 	"/>
</g>
<g>
	<path fill="none" stroke="#7ED1DA" stroke-width="4.0001" stroke-miterlimit="10" d="M311.775,400.74l0.479,30.826
		c0,0,20.764-12.618,23.958-19.326c3.194-6.708,0.16-14.694-6.549-17.889C322.956,391.157,314.97,394.032,311.775,400.74z"/>
	<polygon fill="#7ED1DA" points="278.234,446.74 310.657,446.74 318.803,379.657 270.088,379.657 	"/>
</g>
<g>
	<path fill="none" stroke="#9F2F43" stroke-width="4.0001" stroke-miterlimit="10" d="M278.553,459.198l-0.479,30.826
		c0,0-20.764-12.618-23.958-19.326c-3.194-6.708-0.16-14.694,6.549-17.889C267.373,449.615,275.519,452.49,278.553,459.198z"/>
	<polygon fill="#9F2F43" points="312.254,505.198 279.831,505.198 271.685,437.955 320.4,437.955 	"/>
</g>
<g>
	<path fill="none" stroke="#363537" stroke-width="4.0001" stroke-miterlimit="10" d="M278.713,517.656l-0.479,30.826
		c0,0-20.764-12.618-23.958-19.326s-0.16-14.694,6.549-17.889C267.533,508.073,275.678,510.948,278.713,517.656z"/>
	<polygon fill="#363537" points="312.254,563.816 279.991,563.816 271.845,496.573 320.4,496.573 	"/>
</g>
<g>
	<path fill="none" stroke="#F6F4CA" stroke-width="4.0001" stroke-miterlimit="10" d="M315.129,572.121l0.479,30.826
		c0,0,20.764-12.618,23.958-19.326s0.16-14.694-6.549-17.889C326.31,562.538,318.324,565.413,315.129,572.121z"/>
	<polygon fill="#F6F4CA" points="281.588,618.121 313.852,618.121 321.997,550.878 273.442,550.878 	"/>
</g>
<g>
	<path fill="none" stroke="#363537" stroke-width="4.0001" stroke-miterlimit="10" d="M283.026,624.03l-0.479,30.826
		c0,0-20.764-12.618-23.958-19.326s-0.16-14.694,6.549-17.889C271.845,614.447,279.831,617.322,283.026,624.03z"/>
	<polygon fill="#363537" points="316.567,670.03 284.144,670.03 275.998,602.788 324.713,602.788 	"/>
</g>
<g>
	<path fill="none" stroke="#7ED1DA" stroke-width="4.0001" stroke-miterlimit="10" d="M319.282,678.336l0.479,30.826
		c0,0,20.764-12.618,23.958-19.326s0.16-14.694-6.549-17.889C330.463,668.752,322.477,671.627,319.282,678.336z"/>
	<polygon fill="#7ED1DA" points="285.741,724.495 318.164,724.495 326.31,657.252 277.595,657.252 	"/>
</g>
<g>
	<path fill="none" stroke="#9F2F43" stroke-width="4.0001" stroke-miterlimit="10" d="M283.026,738.87l-0.479,30.826
		c0,0-20.764-12.618-23.958-19.326s-0.16-14.694,6.549-17.889C271.845,729.287,279.831,732.162,283.026,738.87z"/>
	<polygon fill="#9F2F43" points="316.567,784.87 284.144,784.87 275.998,717.627 324.713,717.627 	"/>
</g>
<g>
	<path fill="none" stroke="#57979E" stroke-width="4.0001" stroke-miterlimit="10" d="M279.512,795.89l-0.479,30.826
		c0,0-20.764-12.618-23.958-19.326c-3.194-6.708-0.16-14.694,6.549-17.889C268.331,786.307,276.477,789.182,279.512,795.89z"/>
	<polygon fill="#57979E" points="313.053,841.89 280.789,841.89 272.644,774.647 321.199,774.647 	"/>
</g>
</svg>
