<?xml version="1.0" encoding="utf-8"?>
<!-- Generator: Adobe Illustrator 17.1.0, SVG Export Plug-In . SVG Version: 6.00 Build 0)  -->
<!DOCTYPE svg PUBLIC "-//W3C//DTD SVG 1.1 Tiny//EN" "http://www.w3.org/Graphics/SVG/1.1/DTD/svg11-tiny.dtd">
<svg version="1.1" baseProfile="tiny" id="Layer_1" xmlns="http://www.w3.org/2000/svg" xmlns:xlink="http://www.w3.org/1999/xlink"
	 x="0px" y="0px" viewBox="0 0 65.3 527.1" xml:space="preserve">
<rect x="-7.2" y="27.8" transform="matrix(0.2447 0.9696 -0.9696 0.2447 44.8829 0.2079)" fill="#74A2A7" width="59.1" height="2.2"/>
<g>
	<path fill="none" stroke="#BB4F55" stroke-width="4.0001" stroke-miterlimit="10" d="M40.1,30l0,19.3c0,0,13.1-7.7,15.1-11.9
		c2-4.2,0.3-9.2-3.9-11.3S42.1,25.8,40.1,30z"/>
	<polygon fill="#BB4F55" points="18.7,58.5 38.9,58.8 44.6,16.8 14.2,16.4 	"/>
</g>
<g>
	<path fill="none" stroke="#362C2D" stroke-width="4.0001" stroke-miterlimit="10" d="M18.3,63.4L18,82.7c0,0-13-7.9-15-12.1
		s-0.1-9.2,4.1-11.2S16.4,59.2,18.3,63.4z"/>
	<polygon fill="#362C2D" points="39.3,92.2 19.1,92.2 14,50.2 44.5,50.2 	"/>
</g>
<g>
	<path fill="none" stroke="#E9E9E3" stroke-width="4.0001" stroke-miterlimit="10" d="M18.3,137.9L18,157.2c0,0-13-7.9-15-12.1
		c-2-4.2-0.1-9.2,4.1-11.2S16.4,133.7,18.3,137.9z"/>
	<polygon fill="#E9EAE3" points="39.3,166.7 19.1,166.7 14,124.6 44.5,124.6 	"/>
</g>
<g>
	<path fill="none" stroke="#E9E9E3" stroke-width="4.0001" stroke-miterlimit="10" d="M40.3,100.3l0.3,19.3c0,0,13-7.9,15-12.1
		c2-4.2,0.1-9.2-4.1-11.2C47.3,94.3,42.3,96.1,40.3,100.3z"/>
	<polygon fill="#E9EAE3" points="19.3,129.2 39.6,129.2 44.7,87.1 14.2,87.1 	"/>
</g>
<g>
	<path fill="none" stroke="#75A3A7" stroke-width="4.0001" stroke-miterlimit="10" d="M18.3,175.2L18,194.5c0,0-13-7.9-15-12.1
		c-2-4.2-0.1-9.2,4.1-11.2S16.4,171,18.3,175.2z"/>
	<polygon fill="#74A2A7" points="39.3,204 19.1,204 14,162 44.5,162 	"/>
</g>
<g>
	<path fill="none" stroke="#E9E9E3" stroke-width="4.0001" stroke-miterlimit="10" d="M40.3,213.4l0.3,19.3c0,0,13-7.9,15-12.1
		c2-4.2,0.1-9.2-4.1-11.2C47.3,207.4,42.3,209.2,40.3,213.4z"/>
	<polygon fill="#E9EAE3" points="19.3,242.2 39.6,242.2 44.7,200.2 14.2,200.2 	"/>
</g>
<g>
	<path fill="none" stroke="#A5CED2" stroke-width="4.0001" stroke-miterlimit="10" d="M41.5,250.9l0.3,19.3c0,0,13-7.9,15-12.1
		c2-4.2,0.1-9.2-4.1-11.2S43.5,246.7,41.5,250.9z"/>
	<polygon fill="#A5CED1" points="20.5,279.7 40.8,279.7 45.9,237.7 15.4,237.7 	"/>
</g>
<g>
	<path fill="none" stroke="#BB4F55" stroke-width="4.0001" stroke-miterlimit="10" d="M20.7,287.5l-0.3,19.3c0,0-13-7.9-15-12.1
		c-2-4.2-0.1-9.2,4.1-11.2S18.8,283.3,20.7,287.5z"/>
	<polygon fill="#BB4F55" points="41.8,316.3 21.5,316.3 16.4,274.2 46.9,274.2 	"/>
</g>
<g>
	<path fill="none" stroke="#362C2D" stroke-width="4.0001" stroke-miterlimit="10" d="M20.8,324.1l-0.3,19.3c0,0-13-7.9-15-12.1
		c-2-4.2-0.1-9.2,4.1-11.2S18.9,319.9,20.8,324.1z"/>
	<polygon fill="#362C2D" points="41.8,353 21.6,353 16.5,310.9 46.9,310.9 	"/>
</g>
<g>
	<path fill="none" stroke="#E9E9E3" stroke-width="4.0001" stroke-miterlimit="10" d="M43.6,358.2l0.3,19.3c0,0,13-7.9,15-12.1
		c2-4.2,0.1-9.2-4.1-11.2S45.6,354,43.6,358.2z"/>
	<polygon fill="#E9EAE3" points="22.6,387 42.8,387 47.9,344.9 17.5,344.9 	"/>
</g>
<g>
	<path fill="none" stroke="#362C2D" stroke-width="4.0001" stroke-miterlimit="10" d="M23.5,390.7l-0.3,19.3c0,0-13-7.9-15-12.1
		s-0.1-9.2,4.1-11.2S21.5,386.5,23.5,390.7z"/>
	<polygon fill="#362C2D" points="44.5,419.5 24.2,419.5 19.1,377.4 49.6,377.4 	"/>
</g>
<g>
	<path fill="none" stroke="#A5CED2" stroke-width="4.0001" stroke-miterlimit="10" d="M46.2,424.7l0.3,19.3c0,0,13-7.9,15-12.1
		s0.1-9.2-4.1-11.2S48.2,420.5,46.2,424.7z"/>
	<polygon fill="#A5CED1" points="25.2,453.6 45.5,453.6 50.6,411.5 20.1,411.5 	"/>
</g>
<g>
	<path fill="none" stroke="#BB4F55" stroke-width="4.0001" stroke-miterlimit="10" d="M23.5,462.6l-0.3,19.3c0,0-13-7.9-15-12.1
		c-2-4.2-0.1-9.2,4.1-11.2S21.5,458.4,23.5,462.6z"/>
	<polygon fill="#BB4F55" points="44.5,491.4 24.2,491.4 19.1,449.3 49.6,449.3 	"/>
</g>
<g>
	<path fill="none" stroke="#75A3A7" stroke-width="4.0001" stroke-miterlimit="10" d="M21.3,498.3L21,517.6c0,0-13-7.9-15-12.1
		c-2-4.2-0.1-9.2,4.1-11.2S19.4,494.1,21.3,498.3z"/>
	<polygon fill="#74A2A7" points="42.3,527.1 22.1,527.1 17,485 47.4,485 	"/>
</g>
</svg>
