<?xml version="1.0" encoding="utf-8"?>
<!-- Generator: Adobe Illustrator 17.1.0, SVG Export Plug-In . SVG Version: 6.00 Build 0)  -->
<!DOCTYPE svg PUBLIC "-//W3C//DTD SVG 1.1 Tiny//EN" "http://www.w3.org/Graphics/SVG/1.1/DTD/svg11-tiny.dtd">
<svg version="1.1" baseProfile="tiny" id="Layer_1" xmlns="http://www.w3.org/2000/svg" xmlns:xlink="http://www.w3.org/1999/xlink"
	 x="0px" y="0px" viewBox="0 0 28 250.9" xml:space="preserve">
<g>
	<path fill="#363537" d="M16.3,2.4v25.2h1V2.4c0-0.6,0.2-1.2,0.7-1.7c0.5-0.5,1-0.7,1.7-0.7c0.7,0,1.2,0.2,1.7,0.7
		c0.5,0.5,0.7,1,0.7,1.7v25.3h1V2.4c0-0.7,0.2-1.2,0.7-1.7c0.4-0.5,1-0.7,1.7-0.7c0.7,0,1.2,0.2,1.7,0.7c0.5,0.5,0.7,1,0.7,1.7v46
		c0,1.5-0.4,2.9-1.2,4.1c-0.8,1.2-1.9,2.1-3.3,2.6v195.8H5.2V55.4c-1.5-0.4-2.8-1.3-3.8-2.6c-1-1.3-1.5-2.7-1.5-4.4l0-30.6
		c0-0.7,0.2-1.2,0.7-1.7c0.5-0.5,1-0.7,1.7-0.7s1.2,0.2,1.7,0.7c0.5,0.4,0.7,1,0.7,1.7v20.7h0.9V2.4c0-0.7,0.2-1.2,0.7-1.7
		C6.8,0.2,7.4,0,8.1,0c0.7,0,1.2,0.2,1.7,0.7c0.5,0.5,0.7,1.1,0.7,1.7v25.2h1V2.4c0-0.7,0.2-1.2,0.7-1.7C12.7,0.2,13.3,0,14,0
		c0.6,0,1.2,0.2,1.7,0.7C16.1,1.2,16.3,1.8,16.3,2.4z"/>
</g>
</svg>
