<?xml version="1.0" encoding="utf-8"?>
<!-- Generator: Adobe Illustrator 17.0.0, SVG Export Plug-In . SVG Version: 6.00 Build 0)  -->
<!DOCTYPE svg PUBLIC "-//W3C//DTD SVG 1.1//EN" "http://www.w3.org/Graphics/SVG/1.1/DTD/svg11.dtd">
<svg version="1.1" id="Layer_1" xmlns="http://www.w3.org/2000/svg" xmlns:xlink="http://www.w3.org/1999/xlink" x="0px" y="0px"
	 width="595.28px" height="841.89px" viewBox="0 0 595.28 841.89" enable-background="new 0 0 595.28 841.89" xml:space="preserve">
<g>
	<path fill="#363537" d="M305.358,8.053v84.558h3.355V8.053c0-2.013,0.671-4.027,2.349-5.704C312.74,0.671,314.417,0,316.766,0
		c2.349,0,4.027,0.671,5.704,2.349c1.678,1.678,2.349,3.355,2.349,5.704v84.894h3.355V8.053c0-2.349,0.671-4.027,2.349-5.704
		C331.866,0.671,333.879,0,336.228,0c2.349,0,4.027,0.671,5.704,2.349s2.349,3.355,2.349,5.704v154.352
		c0,5.033-1.342,9.731-4.027,13.757c-2.684,4.027-6.375,7.047-11.073,8.724V841.89h-61.07V185.894
		c-5.033-1.342-9.395-4.362-12.751-8.724c-3.355-4.362-5.033-9.06-5.033-14.764V59.728c0-2.349,0.671-4.027,2.349-5.704
		c1.678-1.678,3.355-2.349,5.704-2.349s4.027,0.671,5.704,2.349c1.678,1.342,2.349,3.355,2.349,5.704v69.458h3.02V8.053
		c0-2.349,0.671-4.027,2.349-5.704C273.481,0.671,275.494,0,277.843,0c2.349,0,4.027,0.671,5.704,2.349s2.349,3.691,2.349,5.704
		v84.558h3.355V8.053c0-2.349,0.671-4.027,2.349-5.704C293.278,0.671,295.291,0,297.64,0c2.013,0,4.027,0.671,5.704,2.349
		C304.687,4.027,305.358,6.04,305.358,8.053z"/>
</g>
</svg>
