<?xml version="1.0" encoding="utf-8"?>
<!-- Generator: Adobe Illustrator 16.0.0, SVG Export Plug-In . SVG Version: 6.00 Build 0)  -->
<!DOCTYPE svg PUBLIC "-//W3C//DTD SVG 1.1 Tiny//EN" "http://www.w3.org/Graphics/SVG/1.1/DTD/svg11-tiny.dtd">
<svg version="1.1" baseProfile="tiny" id="Layer_1" xmlns="http://www.w3.org/2000/svg" xmlns:xlink="http://www.w3.org/1999/xlink"
	 x="0px" y="0px" width="59.727px" height="58px" viewBox="0 0 59.727 58" xml:space="preserve">
<path fill="#363537" d="M0.816,34.065C-2.81,27.786,5.986,15.917,20.464,7.561c14.479-8.36,29.154-10.044,32.778-3.764
	c3.626,6.279-5.169,18.146-19.648,26.507C19.116,38.66,4.441,40.348,0.816,34.065"/>
<path fill="#363537" d="M22.175,52.336c-3.913-6.775,1.023-16.949,11.02-22.723c9.999-5.772,21.276-4.959,25.189,1.817
	c3.913,6.775-1.022,16.95-11.022,22.72C37.366,59.925,26.088,59.111,22.175,52.336"/>
<rect x="12.188" y="15.061" transform="matrix(-0.866 0.5 -0.5 -0.866 76.4704 38.3788)" fill="#363537" width="41.811" height="28.747"/>
<path fill="#9F2F43" d="M8.707,28.685c-1.79-3.1,4.802-10.258,14.723-15.985c9.922-5.73,19.418-7.86,21.208-4.761
	c1.791,3.102-4.803,10.258-14.725,15.985C19.991,29.655,10.496,31.785,8.707,28.685"/>
</svg>
