<?xml version="1.0" encoding="utf-8"?>
<!-- Generator: Adobe Illustrator 17.1.0, SVG Export Plug-In . SVG Version: 6.00 Build 0)  -->
<!DOCTYPE svg PUBLIC "-//W3C//DTD SVG 1.1 Tiny//EN" "http://www.w3.org/Graphics/SVG/1.1/DTD/svg11-tiny.dtd">
<svg version="1.1" baseProfile="tiny" id="Layer_1" xmlns="http://www.w3.org/2000/svg" xmlns:xlink="http://www.w3.org/1999/xlink"
	 x="0px" y="0px" viewBox="0 0 612 792" xml:space="preserve">
<g>
	<line fill="none" stroke="#BB4F55" stroke-width="4" stroke-miterlimit="10" x1="3" y1="0" x2="3" y2="643"/>
	<line fill="none" stroke="#BB4F55" stroke-width="4" stroke-miterlimit="10" x1="31" y1="0" x2="31" y2="643"/>
	<line fill="none" stroke="#BB4F55" stroke-width="2.9998" stroke-miterlimit="10" x1="4.3" y1="343" x2="31" y2="343.2"/>
	<line fill="none" stroke="#BB4F55" stroke-width="2.9998" stroke-miterlimit="10" x1="4.3" y1="360.5" x2="31" y2="360.6"/>
	<line fill="none" stroke="#BB4F55" stroke-width="2.9998" stroke-miterlimit="10" x1="4.3" y1="375.5" x2="31" y2="375.6"/>
	<line fill="none" stroke="#BB4F55" stroke-width="2.9998" stroke-miterlimit="10" x1="4.2" y1="392.9" x2="30.9" y2="393.1"/>
	<line fill="none" stroke="#BB4F55" stroke-width="2.9998" stroke-miterlimit="10" x1="4.2" y1="407.9" x2="30.9" y2="408"/>
	<line fill="none" stroke="#BB4F55" stroke-width="2.9998" stroke-miterlimit="10" x1="4.2" y1="425.4" x2="30.9" y2="425.5"/>
	<line fill="none" stroke="#BB4F55" stroke-width="2.9998" stroke-miterlimit="10" x1="4.1" y1="440.3" x2="30.8" y2="440.5"/>
	<line fill="none" stroke="#BB4F55" stroke-width="2.9998" stroke-miterlimit="10" x1="4.1" y1="457.8" x2="30.8" y2="457.9"/>
	<line fill="none" stroke="#BB4F55" stroke-width="2.9998" stroke-miterlimit="10" x1="4.1" y1="472.8" x2="30.8" y2="472.9"/>
	<line fill="none" stroke="#BB4F55" stroke-width="2.9998" stroke-miterlimit="10" x1="4" y1="490.2" x2="30.7" y2="490.4"/>
	<line fill="none" stroke="#BB4F55" stroke-width="2.9998" stroke-miterlimit="10" x1="4" y1="505.2" x2="30.7" y2="505.4"/>
	<line fill="none" stroke="#BB4F55" stroke-width="2.9998" stroke-miterlimit="10" x1="4" y1="522.7" x2="30.7" y2="522.8"/>
	<line fill="none" stroke="#BB4F55" stroke-width="2.9998" stroke-miterlimit="10" x1="3.9" y1="537.7" x2="30.7" y2="537.8"/>
	<line fill="none" stroke="#BB4F55" stroke-width="2.9998" stroke-miterlimit="10" x1="3.9" y1="555.1" x2="30.6" y2="555.3"/>
	<line fill="none" stroke="#BB4F55" stroke-width="2.9998" stroke-miterlimit="10" x1="3.9" y1="570.1" x2="30.6" y2="570.2"/>
	<line fill="none" stroke="#BB4F55" stroke-width="2.9998" stroke-miterlimit="10" x1="3.8" y1="587.6" x2="30.6" y2="587.7"/>
	<line fill="none" stroke="#BB4F55" stroke-width="2.9998" stroke-miterlimit="10" x1="3.8" y1="602.5" x2="30.5" y2="602.7"/>
	<line fill="none" stroke="#BB4F55" stroke-width="2.9998" stroke-miterlimit="10" x1="3.8" y1="620" x2="30.5" y2="620.1"/>
	<line fill="none" stroke="#BB4F55" stroke-width="2.9998" stroke-miterlimit="10" x1="4.3" y1="67" x2="31" y2="67.2"/>
	<line fill="none" stroke="#BB4F55" stroke-width="2.9998" stroke-miterlimit="10" x1="4.3" y1="82" x2="31" y2="82.2"/>
	<line fill="none" stroke="#BB4F55" stroke-width="2.9998" stroke-miterlimit="10" x1="4.3" y1="99.5" x2="31" y2="99.6"/>
	<line fill="none" stroke="#BB4F55" stroke-width="2.9998" stroke-miterlimit="10" x1="4.2" y1="114.6" x2="30.9" y2="114.8"/>
	<line fill="none" stroke="#BB4F55" stroke-width="2.9998" stroke-miterlimit="10" x1="4.2" y1="131.9" x2="30.9" y2="132.1"/>
	<line fill="none" stroke="#BB4F55" stroke-width="2.9998" stroke-miterlimit="10" x1="4.2" y1="147.2" x2="30.9" y2="147.4"/>
	<path fill="none" stroke="#BB4F55" stroke-width="2.9998" stroke-miterlimit="10" d="M33,0.6"/>
	<path fill="none" stroke="#BB4F55" stroke-width="2.9998" stroke-miterlimit="10" d="M4.3,0.5"/>
	<line fill="none" stroke="#BB4F55" stroke-width="2.9998" stroke-miterlimit="10" x1="4.3" y1="15.5" x2="31" y2="15.6"/>
	<line fill="none" stroke="#BB4F55" stroke-width="2.9998" stroke-miterlimit="10" x1="4.2" y1="32.9" x2="30.9" y2="33.1"/>
	<line fill="none" stroke="#BB4F55" stroke-width="2.9998" stroke-miterlimit="10" x1="4.2" y1="47.9" x2="30.9" y2="48.1"/>
	<line fill="none" stroke="#BB4F55" stroke-width="2.9998" stroke-miterlimit="10" x1="4.1" y1="164.4" x2="30.8" y2="164.5"/>
	<line fill="none" stroke="#BB4F55" stroke-width="2.9998" stroke-miterlimit="10" x1="4.1" y1="181.8" x2="30.8" y2="182"/>
	<line fill="none" stroke="#BB4F55" stroke-width="2.9998" stroke-miterlimit="10" x1="4.1" y1="196.8" x2="30.8" y2="196.9"/>
	<line fill="none" stroke="#BB4F55" stroke-width="2.9998" stroke-miterlimit="10" x1="4" y1="214.3" x2="30.7" y2="214.4"/>
	<line fill="none" stroke="#BB4F55" stroke-width="2.9998" stroke-miterlimit="10" x1="4" y1="229.2" x2="30.7" y2="229.4"/>
	<line fill="none" stroke="#BB4F55" stroke-width="2.9998" stroke-miterlimit="10" x1="4" y1="246.7" x2="30.7" y2="246.8"/>
	<line fill="none" stroke="#BB4F55" stroke-width="2.9998" stroke-miterlimit="10" x1="3.9" y1="261.7" x2="30.7" y2="261.8"/>
	<line fill="none" stroke="#BB4F55" stroke-width="2.9998" stroke-miterlimit="10" x1="3.9" y1="279.1" x2="30.6" y2="279.3"/>
	<line fill="none" stroke="#BB4F55" stroke-width="2.9998" stroke-miterlimit="10" x1="3.9" y1="294.1" x2="30.6" y2="294.3"/>
	<line fill="none" stroke="#BB4F55" stroke-width="2.9998" stroke-miterlimit="10" x1="3.8" y1="311.6" x2="30.6" y2="311.7"/>
	<line fill="none" stroke="#BB4F55" stroke-width="2.9998" stroke-miterlimit="10" x1="3.8" y1="326.6" x2="30.5" y2="326.7"/>
</g>
</svg>
