<?xml version="1.0" encoding="utf-8"?>
<!-- Generator: Adobe Illustrator 16.0.0, SVG Export Plug-In . SVG Version: 6.00 Build 0)  -->
<!DOCTYPE svg PUBLIC "-//W3C//DTD SVG 1.1 Tiny//EN" "http://www.w3.org/Graphics/SVG/1.1/DTD/svg11-tiny.dtd">
<svg version="1.1" baseProfile="tiny" id="Layer_1" xmlns="http://www.w3.org/2000/svg" xmlns:xlink="http://www.w3.org/1999/xlink"
	 x="0px" y="0px" width="1280px" height="800px" viewBox="0 0 1280 800" xml:space="preserve">
<path fill="#7ED1DA" d="M13.506,111.607c0.264,0.29,0.697,0.29,0.961,0l13.117-14.341c0.266-0.29,0.434-0.845,0.38-1.231
	L14.089,0.737c-0.056-0.388-0.149-0.388-0.206,0L0.01,96.035c-0.056,0.387,0.114,0.942,0.379,1.231L13.506,111.607z"/>
<path fill="#7ED1DA" d="M13.711,17.447c-0.241,0.309-0.632,0.309-0.873,0L3.89,5.904C3.65,5.593,3.733,5.183,4.074,4.99l8.579-4.846
	c0.342-0.192,0.901-0.192,1.241,0l8.58,4.846c0.341,0.193,0.424,0.603,0.185,0.914L13.711,17.447z"/>
<g>
	<path fill="#9F2F43" d="M1.267,93.699c0-0.489-0.301-0.904-0.726-1.079c-0.143,0.918-0.259,1.667-0.346,2.228
		C0.792,94.797,1.267,94.311,1.267,93.699z"/>
	<path fill="#9F2F43" d="M6.204,8.666c0.387-0.19,0.659-0.579,0.659-1.04c0-0.646-0.522-1.169-1.167-1.169
		c-0.343,0-0.645,0.154-0.858,0.39L6.204,8.666z"/>
	<path fill="#9F2F43" d="M6.863,53.972c0-0.323-0.131-0.615-0.343-0.827c-0.09,0.613-0.181,1.225-0.271,1.837
		C6.609,54.783,6.863,54.413,6.863,53.972z"/>
	<path fill="#9F2F43" d="M6.863,60.594c0-0.646-0.522-1.169-1.167-1.169c-0.039,0-0.072,0.019-0.11,0.022
		c-0.111,0.746-0.222,1.488-0.332,2.227c0.137,0.056,0.285,0.089,0.442,0.089C6.34,61.763,6.863,61.239,6.863,60.594z"/>
	<circle fill="#9F2F43" cx="5.696" cy="67.215" r="1.169"/>
	<circle fill="#9F2F43" cx="5.696" cy="73.836" r="1.168"/>
	<circle fill="#9F2F43" cx="5.696" cy="80.458" r="1.168"/>
	<circle fill="#9F2F43" cx="5.696" cy="87.078" r="1.168"/>
	<circle fill="#9F2F43" cx="5.696" cy="93.7" r="1.168"/>
	<path fill="#9F2F43" d="M11.292,2.173c0.644,0,1.167-0.523,1.167-1.168c0-0.062-0.026-0.115-0.035-0.174L10.55,1.888
		C10.753,2.058,11.005,2.173,11.292,2.173z"/>
	<circle fill="#9F2F43" cx="11.292" cy="7.625" r="1.168"/>
	<path fill="#9F2F43" d="M11.292,13.078c-0.543,0-0.979,0.378-1.11,0.881l1.091,1.452c0.007,0,0.012,0.004,0.019,0.004
		c0.644,0,1.167-0.523,1.167-1.168C12.458,13.601,11.936,13.078,11.292,13.078z"/>
	<path fill="#9F2F43" d="M11.292,19.699c-0.031,0-0.057,0.015-0.087,0.018c-0.092,0.727-0.188,1.473-0.288,2.243
		c0.119,0.041,0.242,0.076,0.375,0.076c0.644,0,1.167-0.522,1.167-1.168S11.936,19.699,11.292,19.699z"/>
	<path fill="#9F2F43" d="M11.292,26.321c-0.462,0-0.854,0.274-1.043,0.664c-0.03,0.224-0.061,0.447-0.091,0.673
		c0.085,0.562,0.548,1,1.134,1c0.644,0,1.167-0.522,1.167-1.168S11.936,26.321,11.292,26.321z"/>
	<circle fill="#9F2F43" cx="11.292" cy="34.11" r="1.168"/>
	<circle fill="#9F2F43" cx="11.292" cy="40.731" r="1.168"/>
	<circle fill="#9F2F43" cx="11.292" cy="47.352" r="1.168"/>
	<circle fill="#9F2F43" cx="11.292" cy="53.972" r="1.168"/>
	<circle fill="#9F2F43" cx="11.292" cy="60.594" r="1.169"/>
	<circle fill="#9F2F43" cx="11.292" cy="67.215" r="1.169"/>
	<circle fill="#9F2F43" cx="11.292" cy="73.836" r="1.168"/>
	<circle fill="#9F2F43" cx="11.292" cy="80.458" r="1.168"/>
	<circle fill="#9F2F43" cx="11.292" cy="87.078" r="1.168"/>
	<circle fill="#9F2F43" cx="11.292" cy="93.7" r="1.168"/>
	<path fill="#9F2F43" d="M16.887,2.173c0.145,0,0.281-0.034,0.409-0.083l-1.532-0.865C15.87,1.761,16.32,2.173,16.887,2.173z"/>
	<circle fill="#9F2F43" cx="16.887" cy="7.625" r="1.168"/>
	<path fill="#9F2F43" d="M16.11,15.106L16,14.354l0.985-1.256c-0.034-0.003-0.063-0.02-0.099-0.02c-0.645,0-1.168,0.523-1.168,1.169
		C15.719,14.591,15.874,14.893,16.11,15.106z"/>
	<path fill="#9F2F43" d="M16.887,22.036c0.082,0,0.154-0.031,0.232-0.047l-0.333-2.269c-0.595,0.053-1.067,0.538-1.067,1.148
		C15.719,21.513,16.242,22.036,16.887,22.036z"/>
	<path fill="#9F2F43" d="M16.887,26.321c-0.645,0-1.168,0.522-1.168,1.168s0.523,1.168,1.168,1.168c0.512,0,0.935-0.335,1.092-0.794
		l-0.15-1.027C17.618,26.532,17.284,26.321,16.887,26.321z"/>
	<circle fill="#9F2F43" cx="16.887" cy="34.11" r="1.168"/>
	<circle fill="#9F2F43" cx="16.887" cy="40.731" r="1.168"/>
	<circle fill="#9F2F43" cx="16.887" cy="47.352" r="1.168"/>
	<circle fill="#9F2F43" cx="16.887" cy="53.972" r="1.168"/>
	<circle fill="#9F2F43" cx="16.887" cy="60.594" r="1.169"/>
	<circle fill="#9F2F43" cx="16.887" cy="67.215" r="1.169"/>
	<circle fill="#9F2F43" cx="16.887" cy="73.836" r="1.168"/>
	<circle fill="#9F2F43" cx="16.887" cy="80.458" r="1.168"/>
	<circle fill="#9F2F43" cx="16.887" cy="87.078" r="1.168"/>
	<circle fill="#9F2F43" cx="16.887" cy="93.7" r="1.168"/>
	<path fill="#9F2F43" d="M21.329,7.559l0.809-1.032C21.686,6.669,21.358,7.067,21.329,7.559z"/>
	<path fill="#9F2F43" d="M21.315,53.972c0,0.452,0.264,0.832,0.638,1.026l-0.273-1.868C21.457,53.344,21.315,53.64,21.315,53.972z"
		/>
	<path fill="#9F2F43" d="M22.483,59.425c-0.646,0-1.168,0.523-1.168,1.169s0.522,1.169,1.168,1.169c0.159,0,0.31-0.033,0.448-0.091
		l-0.325-2.222C22.563,59.445,22.526,59.425,22.483,59.425z"/>
	<circle fill="#9F2F43" cx="22.483" cy="67.215" r="1.169"/>
	<circle fill="#9F2F43" cx="22.483" cy="73.836" r="1.168"/>
	<circle fill="#9F2F43" cx="22.483" cy="80.458" r="1.168"/>
	<circle fill="#9F2F43" cx="22.483" cy="87.078" r="1.168"/>
	<circle fill="#9F2F43" cx="22.483" cy="93.7" r="1.168"/>
	<path fill="#9F2F43" d="M26.911,93.699c0,0.541,0.375,0.976,0.874,1.109l-0.306-2.086C27.145,92.927,26.911,93.278,26.911,93.699z"
		/>
	<circle fill="#9F2F43" cx="5.696" cy="100.321" r="1.169"/>
	<circle fill="#9F2F43" cx="11.292" cy="100.321" r="1.169"/>
	<circle fill="#9F2F43" cx="16.887" cy="100.321" r="1.169"/>
	<circle fill="#9F2F43" cx="22.483" cy="100.321" r="1.169"/>
	<circle fill="#9F2F43" cx="11.292" cy="106.942" r="1.168"/>
	<path fill="#9F2F43" d="M18.054,106.941c0-0.644-0.523-1.167-1.167-1.167s-1.168,0.523-1.168,1.167
		c0,0.646,0.523,1.169,1.168,1.169c0.185,0,0.353-0.052,0.508-0.128l0.585-0.673C18.02,107.191,18.054,107.071,18.054,106.941z"/>
</g>
</svg>
