<?xml version="1.0" encoding="utf-8"?>
<!-- Generator: Adobe Illustrator 17.0.0, SVG Export Plug-In . SVG Version: 6.00 Build 0)  -->
<!DOCTYPE svg PUBLIC "-//W3C//DTD SVG 1.1 Tiny//EN" "http://www.w3.org/Graphics/SVG/1.1/DTD/svg11-tiny.dtd">
<svg version="1.1" baseProfile="tiny" id="Layer_1" xmlns="http://www.w3.org/2000/svg" xmlns:xlink="http://www.w3.org/1999/xlink"
	 x="0px" y="0px" width="1280px" height="800px" viewBox="0 0 1280 800" overflow="auto" xml:space="preserve">
<g>
	<path fill="#7ED1DA" d="M13.706,111.456c0.186,0.203,0.489,0.203,0.675,0L27.75,96.838c0.186-0.203,0.305-0.592,0.265-0.864
		l-13.9-95.48c-0.04-0.272-0.104-0.272-0.144,0l-13.9,95.48c-0.04,0.272,0.08,0.661,0.265,0.864L13.706,111.456z"/>
	<path fill="#7ED1DA" d="M14.35,17.776c-0.168,0.217-0.444,0.217-0.613,0L4.553,5.927C4.385,5.71,4.443,5.422,4.682,5.286
		l8.926-5.041c0.239-0.135,0.631-0.135,0.871,0l8.926,5.041c0.239,0.135,0.298,0.424,0.129,0.641L14.35,17.776z"/>
</g>
<g>
	<polygon fill="#9F2F43" points="19.797,39.526 19.48,37.342 6.755,50.067 6.328,52.995 	"/>
	<polygon fill="#9F2F43" points="20.528,44.546 20.21,42.363 5.775,56.799 5.348,59.726 	"/>
	<polygon fill="#9F2F43" points="21.259,49.567 20.941,47.383 4.795,63.53 4.368,66.457 	"/>
	<polygon fill="#9F2F43" points="21.99,54.587 21.672,52.404 3.815,70.262 3.389,73.189 	"/>
	<polygon fill="#9F2F43" points="22.721,59.608 22.403,57.425 2.835,76.993 2.409,79.92 	"/>
	<polygon fill="#9F2F43" points="23.452,64.628 23.134,62.445 1.855,83.724 1.429,86.652 	"/>
	<polygon fill="#9F2F43" points="24.183,69.649 23.865,67.466 0.875,90.456 0.449,93.383 	"/>
	<polygon fill="#9F2F43" points="24.914,74.67 24.596,72.486 0.292,96.79 1.487,98.096 	"/>
	<polygon fill="#9F2F43" points="25.644,79.69 25.327,77.507 3.04,99.794 4.234,101.1 	"/>
	<polygon fill="#9F2F43" points="26.375,84.711 26.058,82.527 5.787,102.798 6.982,104.104 	"/>
	<polygon fill="#9F2F43" points="27.106,89.731 26.788,87.548 8.535,105.802 9.729,107.108 	"/>
	<polygon fill="#9F2F43" points="27.837,94.752 27.519,92.569 11.282,108.806 12.477,110.112 	"/>
	<polygon fill="#9F2F43" points="14.353,111.487 14.029,111.81 14.043,111.825 	"/>
	<polygon fill="#9F2F43" points="18.336,29.484 18.018,27.301 8.714,36.605 8.288,39.532 	"/>
	<polygon fill="#9F2F43" points="19.066,34.505 18.749,32.322 7.734,43.336 7.308,46.263 	"/>
	<polygon fill="#9F2F43" points="16.874,19.443 16.556,17.26 10.674,23.142 10.248,26.069 	"/>
	<polygon fill="#9F2F43" points="17.605,24.464 17.287,22.281 9.694,29.873 9.268,32.8 	"/>
	<polygon fill="#9F2F43" points="12.361,0.95 6.616,4.195 4.697,6.113 5.789,7.522 	"/>
	<polygon fill="#9F2F43" points="17.251,1.812 15.653,0.909 7.208,9.353 8.301,10.762 	"/>
	<polygon fill="#9F2F43" points="20.927,3.887 19.328,2.985 9.72,12.593 10.812,14.002 	"/>
	<polygon fill="#9F2F43" points="19.726,10.84 23.84,5.532 23.004,5.06 11.654,16.41 11.228,19.337 	"/>
</g>
</svg>
