<?xml version="1.0" encoding="utf-8"?>
<!-- Generator: Adobe Illustrator 17.0.0, SVG Export Plug-In . SVG Version: 6.00 Build 0)  -->
<!DOCTYPE svg PUBLIC "-//W3C//DTD SVG 1.1//EN" "http://www.w3.org/Graphics/SVG/1.1/DTD/svg11.dtd">
<svg version="1.1" id="Layer_1" xmlns="http://www.w3.org/2000/svg" xmlns:xlink="http://www.w3.org/1999/xlink" x="0px" y="0px"
	 width="595.28px" height="841.89px" viewBox="0 0 595.28 841.89" enable-background="new 0 0 595.28 841.89" xml:space="preserve">
<g>
	<rect x="285.159" fill="#57979E" width="24.963" height="834.6"/>
	<g>
		
			<line fill="none" stroke="#F6F4CA" stroke-width="2.0001" stroke-miterlimit="10" x1="285.159" y1="782.023" x2="302.831" y2="782.023"/>
		
			<line fill="none" stroke="#F6F4CA" stroke-width="2.0001" stroke-miterlimit="10" x1="285.159" y1="729.226" x2="302.831" y2="729.226"/>
		
			<line fill="none" stroke="#F6F4CA" stroke-width="2.0001" stroke-miterlimit="10" x1="285.159" y1="676.649" x2="302.831" y2="676.649"/>
		
			<line fill="none" stroke="#F6F4CA" stroke-width="2.0001" stroke-miterlimit="10" x1="285.159" y1="623.851" x2="302.831" y2="623.851"/>
		
			<line fill="none" stroke="#F6F4CA" stroke-width="2.0001" stroke-miterlimit="10" x1="285.159" y1="571.054" x2="302.831" y2="571.054"/>
		
			<line fill="none" stroke="#F6F4CA" stroke-width="2.0001" stroke-miterlimit="10" x1="285.159" y1="518.477" x2="302.831" y2="518.477"/>
		
			<line fill="none" stroke="#F6F4CA" stroke-width="2.0001" stroke-miterlimit="10" x1="285.159" y1="465.679" x2="302.831" y2="465.679"/>
		
			<line fill="none" stroke="#F6F4CA" stroke-width="2.0001" stroke-miterlimit="10" x1="285.159" y1="821.566" x2="293.995" y2="821.566"/>
		
			<line fill="none" stroke="#F6F4CA" stroke-width="2.0001" stroke-miterlimit="10" x1="285.159" y1="768.769" x2="293.995" y2="768.769"/>
		
			<line fill="none" stroke="#F6F4CA" stroke-width="2.0001" stroke-miterlimit="10" x1="285.159" y1="716.192" x2="293.995" y2="716.192"/>
		
			<line fill="none" stroke="#F6F4CA" stroke-width="2.0001" stroke-miterlimit="10" x1="285.159" y1="663.394" x2="293.995" y2="663.394"/>
		
			<line fill="none" stroke="#F6F4CA" stroke-width="2.0001" stroke-miterlimit="10" x1="285.159" y1="610.597" x2="293.995" y2="610.597"/>
		
			<line fill="none" stroke="#F6F4CA" stroke-width="2.0001" stroke-miterlimit="10" x1="285.159" y1="558.02" x2="293.995" y2="558.02"/>
		
			<line fill="none" stroke="#F6F4CA" stroke-width="2.0001" stroke-miterlimit="10" x1="285.159" y1="505.222" x2="293.995" y2="505.222"/>
		
			<line fill="none" stroke="#F6F4CA" stroke-width="2.0001" stroke-miterlimit="10" x1="285.159" y1="452.425" x2="293.995" y2="452.425"/>
		
			<line fill="none" stroke="#F6F4CA" stroke-width="2.0001" stroke-miterlimit="10" x1="285.159" y1="808.312" x2="293.995" y2="808.312"/>
		
			<line fill="none" stroke="#F6F4CA" stroke-width="2.0001" stroke-miterlimit="10" x1="285.159" y1="755.735" x2="293.995" y2="755.735"/>
		
			<line fill="none" stroke="#F6F4CA" stroke-width="2.0001" stroke-miterlimit="10" x1="285.159" y1="702.937" x2="293.995" y2="702.937"/>
		
			<line fill="none" stroke="#F6F4CA" stroke-width="2.0001" stroke-miterlimit="10" x1="285.159" y1="650.14" x2="293.995" y2="650.14"/>
		
			<line fill="none" stroke="#F6F4CA" stroke-width="2.0001" stroke-miterlimit="10" x1="285.159" y1="597.563" x2="293.995" y2="597.563"/>
		
			<line fill="none" stroke="#F6F4CA" stroke-width="2.0001" stroke-miterlimit="10" x1="285.159" y1="544.765" x2="293.995" y2="544.765"/>
		
			<line fill="none" stroke="#F6F4CA" stroke-width="2.0001" stroke-miterlimit="10" x1="285.159" y1="491.968" x2="293.995" y2="491.968"/>
		
			<line fill="none" stroke="#F6F4CA" stroke-width="2.0001" stroke-miterlimit="10" x1="285.159" y1="439.391" x2="293.995" y2="439.391"/>
		
			<line fill="none" stroke="#F6F4CA" stroke-width="2.0001" stroke-miterlimit="10" x1="285.159" y1="795.278" x2="293.995" y2="795.278"/>
		
			<line fill="none" stroke="#F6F4CA" stroke-width="2.0001" stroke-miterlimit="10" x1="285.159" y1="742.48" x2="293.995" y2="742.48"/>
		
			<line fill="none" stroke="#F6F4CA" stroke-width="2.0001" stroke-miterlimit="10" x1="285.159" y1="689.683" x2="293.995" y2="689.683"/>
		
			<line fill="none" stroke="#F6F4CA" stroke-width="2.0001" stroke-miterlimit="10" x1="285.159" y1="637.106" x2="293.995" y2="637.106"/>
		
			<line fill="none" stroke="#F6F4CA" stroke-width="2.0001" stroke-miterlimit="10" x1="285.159" y1="584.308" x2="293.995" y2="584.308"/>
		
			<line fill="none" stroke="#F6F4CA" stroke-width="2.0001" stroke-miterlimit="10" x1="285.159" y1="531.511" x2="293.995" y2="531.511"/>
		
			<line fill="none" stroke="#F6F4CA" stroke-width="2.0001" stroke-miterlimit="10" x1="285.159" y1="478.934" x2="293.995" y2="478.934"/>
		
			<line fill="none" stroke="#F6F4CA" stroke-width="2.0001" stroke-miterlimit="10" x1="285.159" y1="426.136" x2="293.995" y2="426.136"/>
		
			<line fill="none" stroke="#F6F4CA" stroke-width="2.0001" stroke-miterlimit="10" x1="285.159" y1="412.882" x2="302.831" y2="412.882"/>
		
			<line fill="none" stroke="#F6F4CA" stroke-width="2.0001" stroke-miterlimit="10" x1="285.159" y1="360.305" x2="302.831" y2="360.305"/>
		
			<line fill="none" stroke="#F6F4CA" stroke-width="2.0001" stroke-miterlimit="10" x1="285.159" y1="307.507" x2="302.831" y2="307.507"/>
		
			<line fill="none" stroke="#F6F4CA" stroke-width="2.0001" stroke-miterlimit="10" x1="285.159" y1="254.71" x2="302.831" y2="254.71"/>
		
			<line fill="none" stroke="#F6F4CA" stroke-width="2.0001" stroke-miterlimit="10" x1="285.159" y1="202.133" x2="302.831" y2="202.133"/>
		
			<line fill="none" stroke="#F6F4CA" stroke-width="2.0001" stroke-miterlimit="10" x1="285.159" y1="149.336" x2="302.831" y2="149.336"/>
		
			<line fill="none" stroke="#F6F4CA" stroke-width="2.0001" stroke-miterlimit="10" x1="285.159" y1="96.538" x2="302.831" y2="96.538"/>
		
			<line fill="none" stroke="#F6F4CA" stroke-width="2.0001" stroke-miterlimit="10" x1="285.159" y1="43.961" x2="302.831" y2="43.961"/>
		
			<line fill="none" stroke="#F6F4CA" stroke-width="2.0001" stroke-miterlimit="10" x1="285.159" y1="399.848" x2="293.995" y2="399.848"/>
		
			<line fill="none" stroke="#F6F4CA" stroke-width="2.0001" stroke-miterlimit="10" x1="285.159" y1="347.05" x2="293.995" y2="347.05"/>
		
			<line fill="none" stroke="#F6F4CA" stroke-width="2.0001" stroke-miterlimit="10" x1="285.159" y1="294.253" x2="293.995" y2="294.253"/>
		
			<line fill="none" stroke="#F6F4CA" stroke-width="2.0001" stroke-miterlimit="10" x1="285.159" y1="241.676" x2="293.995" y2="241.676"/>
		
			<line fill="none" stroke="#F6F4CA" stroke-width="2.0001" stroke-miterlimit="10" x1="285.159" y1="188.878" x2="293.995" y2="188.878"/>
		
			<line fill="none" stroke="#F6F4CA" stroke-width="2.0001" stroke-miterlimit="10" x1="285.159" y1="136.081" x2="293.995" y2="136.081"/>
		
			<line fill="none" stroke="#F6F4CA" stroke-width="2.0001" stroke-miterlimit="10" x1="285.159" y1="83.504" x2="293.995" y2="83.504"/>
		
			<line fill="none" stroke="#F6F4CA" stroke-width="2.0001" stroke-miterlimit="10" x1="285.159" y1="30.707" x2="293.995" y2="30.707"/>
		
			<line fill="none" stroke="#F6F4CA" stroke-width="2.0001" stroke-miterlimit="10" x1="285.159" y1="386.593" x2="293.995" y2="386.593"/>
		
			<line fill="none" stroke="#F6F4CA" stroke-width="2.0001" stroke-miterlimit="10" x1="285.159" y1="333.796" x2="293.995" y2="333.796"/>
		
			<line fill="none" stroke="#F6F4CA" stroke-width="2.0001" stroke-miterlimit="10" x1="285.159" y1="281.219" x2="293.995" y2="281.219"/>
		
			<line fill="none" stroke="#F6F4CA" stroke-width="2.0001" stroke-miterlimit="10" x1="285.159" y1="228.421" x2="293.995" y2="228.421"/>
		
			<line fill="none" stroke="#F6F4CA" stroke-width="2.0001" stroke-miterlimit="10" x1="285.159" y1="175.624" x2="293.995" y2="175.624"/>
		
			<line fill="none" stroke="#F6F4CA" stroke-width="2.0001" stroke-miterlimit="10" x1="285.159" y1="123.047" x2="293.995" y2="123.047"/>
		
			<line fill="none" stroke="#F6F4CA" stroke-width="2.0001" stroke-miterlimit="10" x1="285.159" y1="70.25" x2="293.995" y2="70.25"/>
		
			<line fill="none" stroke="#F6F4CA" stroke-width="2.0001" stroke-miterlimit="10" x1="285.159" y1="17.452" x2="293.995" y2="17.452"/>
		
			<line fill="none" stroke="#F6F4CA" stroke-width="2.0001" stroke-miterlimit="10" x1="285.159" y1="373.339" x2="293.995" y2="373.339"/>
		
			<line fill="none" stroke="#F6F4CA" stroke-width="2.0001" stroke-miterlimit="10" x1="285.159" y1="320.762" x2="293.995" y2="320.762"/>
		
			<line fill="none" stroke="#F6F4CA" stroke-width="2.0001" stroke-miterlimit="10" x1="285.159" y1="267.964" x2="293.995" y2="267.964"/>
		
			<line fill="none" stroke="#F6F4CA" stroke-width="2.0001" stroke-miterlimit="10" x1="285.159" y1="215.167" x2="293.995" y2="215.167"/>
		
			<line fill="none" stroke="#F6F4CA" stroke-width="2.0001" stroke-miterlimit="10" x1="285.159" y1="162.59" x2="293.995" y2="162.59"/>
		
			<line fill="none" stroke="#F6F4CA" stroke-width="2.0001" stroke-miterlimit="10" x1="285.159" y1="109.793" x2="293.995" y2="109.793"/>
		
			<line fill="none" stroke="#F6F4CA" stroke-width="2.0001" stroke-miterlimit="10" x1="285.159" y1="56.995" x2="293.995" y2="56.995"/>
	</g>
</g>
</svg>
