<?xml version="1.0" encoding="utf-8"?>
<!-- Generator: Adobe Illustrator 17.1.0, SVG Export Plug-In . SVG Version: 6.00 Build 0)  -->
<!DOCTYPE svg PUBLIC "-//W3C//DTD SVG 1.1 Tiny//EN" "http://www.w3.org/Graphics/SVG/1.1/DTD/svg11-tiny.dtd">
<svg version="1.1" baseProfile="tiny" id="Layer_1" xmlns="http://www.w3.org/2000/svg" xmlns:xlink="http://www.w3.org/1999/xlink"
	 x="0px" y="0px" viewBox="0 0 11.3 381.1" xml:space="preserve">
<g>
	<rect x="0" fill="#74A2A7" width="11.3" height="377.8"/>
	<g>
		<line fill="none" stroke="#E9E9E3" stroke-width="2.0001" stroke-miterlimit="10" x1="0" y1="354" x2="8" y2="354"/>
		<line fill="none" stroke="#E9E9E3" stroke-width="2.0001" stroke-miterlimit="10" x1="0" y1="330.1" x2="8" y2="330.1"/>
		<line fill="none" stroke="#E9E9E3" stroke-width="2.0001" stroke-miterlimit="10" x1="0" y1="306.3" x2="8" y2="306.3"/>
		<line fill="none" stroke="#E9E9E3" stroke-width="2.0001" stroke-miterlimit="10" x1="0" y1="282.4" x2="8" y2="282.4"/>
		<line fill="none" stroke="#E9E9E3" stroke-width="2.0001" stroke-miterlimit="10" x1="0" y1="258.5" x2="8" y2="258.5"/>
		<line fill="none" stroke="#E9E9E3" stroke-width="2.0001" stroke-miterlimit="10" x1="0" y1="234.7" x2="8" y2="234.7"/>
		<line fill="none" stroke="#E9E9E3" stroke-width="2.0001" stroke-miterlimit="10" x1="0" y1="210.8" x2="8" y2="210.8"/>
		<line fill="none" stroke="#E9E9E3" stroke-width="2.0001" stroke-miterlimit="10" x1="0" y1="371.9" x2="4" y2="371.9"/>
		<line fill="none" stroke="#E9E9E3" stroke-width="2.0001" stroke-miterlimit="10" x1="0" y1="348" x2="4" y2="348"/>
		<line fill="none" stroke="#E9E9E3" stroke-width="2.0001" stroke-miterlimit="10" x1="0" y1="324.2" x2="4" y2="324.2"/>
		<line fill="none" stroke="#E9E9E3" stroke-width="2.0001" stroke-miterlimit="10" x1="0" y1="300.3" x2="4" y2="300.3"/>
		<line fill="none" stroke="#E9E9E3" stroke-width="2.0001" stroke-miterlimit="10" x1="0" y1="276.4" x2="4" y2="276.4"/>
		<line fill="none" stroke="#E9E9E3" stroke-width="2.0001" stroke-miterlimit="10" x1="0" y1="252.6" x2="4" y2="252.6"/>
		<line fill="none" stroke="#E9E9E3" stroke-width="2.0001" stroke-miterlimit="10" x1="0" y1="228.7" x2="4" y2="228.7"/>
		<line fill="none" stroke="#E9E9E3" stroke-width="2.0001" stroke-miterlimit="10" x1="0" y1="204.8" x2="4" y2="204.8"/>
		<line fill="none" stroke="#E9E9E3" stroke-width="2.0001" stroke-miterlimit="10" x1="0" y1="365.9" x2="4" y2="365.9"/>
		<line fill="none" stroke="#E9E9E3" stroke-width="2.0001" stroke-miterlimit="10" x1="0" y1="342.1" x2="4" y2="342.1"/>
		<line fill="none" stroke="#E9E9E3" stroke-width="2.0001" stroke-miterlimit="10" x1="0" y1="318.2" x2="4" y2="318.2"/>
		<line fill="none" stroke="#E9E9E3" stroke-width="2.0001" stroke-miterlimit="10" x1="0" y1="294.3" x2="4" y2="294.3"/>
		<line fill="none" stroke="#E9E9E3" stroke-width="2.0001" stroke-miterlimit="10" x1="0" y1="270.5" x2="4" y2="270.5"/>
		<line fill="none" stroke="#E9E9E3" stroke-width="2.0001" stroke-miterlimit="10" x1="0" y1="246.6" x2="4" y2="246.6"/>
		<line fill="none" stroke="#E9E9E3" stroke-width="2.0001" stroke-miterlimit="10" x1="0" y1="222.7" x2="4" y2="222.7"/>
		<line fill="none" stroke="#E9E9E3" stroke-width="2.0001" stroke-miterlimit="10" x1="0" y1="198.9" x2="4" y2="198.9"/>
		<line fill="none" stroke="#E9E9E3" stroke-width="2.0001" stroke-miterlimit="10" x1="0" y1="360" x2="4" y2="360"/>
		<line fill="none" stroke="#E9E9E3" stroke-width="2.0001" stroke-miterlimit="10" x1="0" y1="336.1" x2="4" y2="336.1"/>
		<line fill="none" stroke="#E9E9E3" stroke-width="2.0001" stroke-miterlimit="10" x1="0" y1="312.2" x2="4" y2="312.2"/>
		<line fill="none" stroke="#E9E9E3" stroke-width="2.0001" stroke-miterlimit="10" x1="0" y1="288.4" x2="4" y2="288.4"/>
		<line fill="none" stroke="#E9E9E3" stroke-width="2.0001" stroke-miterlimit="10" x1="0" y1="264.5" x2="4" y2="264.5"/>
		<line fill="none" stroke="#E9E9E3" stroke-width="2.0001" stroke-miterlimit="10" x1="0" y1="240.6" x2="4" y2="240.6"/>
		<line fill="none" stroke="#E9E9E3" stroke-width="2.0001" stroke-miterlimit="10" x1="0" y1="216.8" x2="4" y2="216.8"/>
		<line fill="none" stroke="#E9E9E3" stroke-width="2.0001" stroke-miterlimit="10" x1="0" y1="192.9" x2="4" y2="192.9"/>
		<line fill="none" stroke="#E9E9E3" stroke-width="2.0001" stroke-miterlimit="10" x1="0" y1="186.9" x2="8" y2="186.9"/>
		<line fill="none" stroke="#E9E9E3" stroke-width="2.0001" stroke-miterlimit="10" x1="0" y1="163.1" x2="8" y2="163.1"/>
		<line fill="none" stroke="#E9E9E3" stroke-width="2.0001" stroke-miterlimit="10" x1="0" y1="139.2" x2="8" y2="139.2"/>
		<line fill="none" stroke="#E9E9E3" stroke-width="2.0001" stroke-miterlimit="10" x1="0" y1="115.3" x2="8" y2="115.3"/>
		<line fill="none" stroke="#E9E9E3" stroke-width="2.0001" stroke-miterlimit="10" x1="0" y1="91.5" x2="8" y2="91.5"/>
		<line fill="none" stroke="#E9E9E3" stroke-width="2.0001" stroke-miterlimit="10" x1="0" y1="67.6" x2="8" y2="67.6"/>
		<line fill="none" stroke="#E9E9E3" stroke-width="2.0001" stroke-miterlimit="10" x1="0" y1="43.7" x2="8" y2="43.7"/>
		<line fill="none" stroke="#E9E9E3" stroke-width="2.0001" stroke-miterlimit="10" x1="0" y1="19.9" x2="8" y2="19.9"/>
		<line fill="none" stroke="#E9E9E3" stroke-width="2.0001" stroke-miterlimit="10" x1="0" y1="181" x2="4" y2="181"/>
		<line fill="none" stroke="#E9E9E3" stroke-width="2.0001" stroke-miterlimit="10" x1="0" y1="157.1" x2="4" y2="157.1"/>
		<line fill="none" stroke="#E9E9E3" stroke-width="2.0001" stroke-miterlimit="10" x1="0" y1="133.2" x2="4" y2="133.2"/>
		<line fill="none" stroke="#E9E9E3" stroke-width="2.0001" stroke-miterlimit="10" x1="0" y1="109.4" x2="4" y2="109.4"/>
		<line fill="none" stroke="#E9E9E3" stroke-width="2.0001" stroke-miterlimit="10" x1="0" y1="85.5" x2="4" y2="85.5"/>
		<line fill="none" stroke="#E9E9E3" stroke-width="2.0001" stroke-miterlimit="10" x1="0" y1="61.6" x2="4" y2="61.6"/>
		<line fill="none" stroke="#E9E9E3" stroke-width="2.0001" stroke-miterlimit="10" x1="0" y1="37.8" x2="4" y2="37.8"/>
		<line fill="none" stroke="#E9E9E3" stroke-width="2.0001" stroke-miterlimit="10" x1="0" y1="13.9" x2="4" y2="13.9"/>
		<line fill="none" stroke="#E9E9E3" stroke-width="2.0001" stroke-miterlimit="10" x1="0" y1="175" x2="4" y2="175"/>
		<line fill="none" stroke="#E9E9E3" stroke-width="2.0001" stroke-miterlimit="10" x1="0" y1="151.1" x2="4" y2="151.1"/>
		<line fill="none" stroke="#E9E9E3" stroke-width="2.0001" stroke-miterlimit="10" x1="0" y1="127.3" x2="4" y2="127.3"/>
		<line fill="none" stroke="#E9E9E3" stroke-width="2.0001" stroke-miterlimit="10" x1="0" y1="103.4" x2="4" y2="103.4"/>
		<line fill="none" stroke="#E9E9E3" stroke-width="2.0001" stroke-miterlimit="10" x1="0" y1="79.5" x2="4" y2="79.5"/>
		<line fill="none" stroke="#E9E9E3" stroke-width="2.0001" stroke-miterlimit="10" x1="0" y1="55.7" x2="4" y2="55.7"/>
		<line fill="none" stroke="#E9E9E3" stroke-width="2.0001" stroke-miterlimit="10" x1="0" y1="31.8" x2="4" y2="31.8"/>
		<line fill="none" stroke="#E9E9E3" stroke-width="2.0001" stroke-miterlimit="10" x1="0" y1="7.9" x2="4" y2="7.9"/>
		<line fill="none" stroke="#E9E9E3" stroke-width="2.0001" stroke-miterlimit="10" x1="0" y1="169" x2="4" y2="169"/>
		<line fill="none" stroke="#E9E9E3" stroke-width="2.0001" stroke-miterlimit="10" x1="0" y1="145.2" x2="4" y2="145.2"/>
		<line fill="none" stroke="#E9E9E3" stroke-width="2.0001" stroke-miterlimit="10" x1="0" y1="121.3" x2="4" y2="121.3"/>
		<line fill="none" stroke="#E9E9E3" stroke-width="2.0001" stroke-miterlimit="10" x1="0" y1="97.4" x2="4" y2="97.4"/>
		<line fill="none" stroke="#E9E9E3" stroke-width="2.0001" stroke-miterlimit="10" x1="0" y1="73.6" x2="4" y2="73.6"/>
		<line fill="none" stroke="#E9E9E3" stroke-width="2.0001" stroke-miterlimit="10" x1="0" y1="49.7" x2="4" y2="49.7"/>
		<line fill="none" stroke="#E9E9E3" stroke-width="2.0001" stroke-miterlimit="10" x1="0" y1="25.8" x2="4" y2="25.8"/>
	</g>
</g>
</svg>
