<?xml version="1.0" encoding="utf-8"?>
<!-- Generator: Adobe Illustrator 17.1.0, SVG Export Plug-In . SVG Version: 6.00 Build 0)  -->
<!DOCTYPE svg PUBLIC "-//W3C//DTD SVG 1.1 Tiny//EN" "http://www.w3.org/Graphics/SVG/1.1/DTD/svg11-tiny.dtd">
<svg version="1.1" baseProfile="tiny" id="Layer_1" xmlns="http://www.w3.org/2000/svg" xmlns:xlink="http://www.w3.org/1999/xlink"
	 x="0px" y="0px" viewBox="0 0 68 273.7" xml:space="preserve">
<line fill="none" stroke="#D5D49B" stroke-width="6" stroke-miterlimit="10" x1="34" y1="273.7" x2="34" y2="34"/>
<g>
	<path fill="#57979E" d="M65.9,2.1L34,34l-9.5-9.5c0,0,18.5-18.5,22-22C52-2.9,65.9,2.1,65.9,2.1z"/>
	<path fill="#57979E" d="M65.9,65.9L34,34l9.5-9.5c0,0,18.5,18.5,22,22C70.9,52,65.9,65.9,65.9,65.9z"/>
	<path fill="#57979E" d="M2.1,65.9L34,34l9.5,9.5c0,0-18.5,18.5-22,22C16,70.9,2.1,65.9,2.1,65.9z"/>
	<path fill="#57979E" d="M2.1,2.1L34,34l-9.5,9.5c0,0-18.5-18.5-22-22C-2.9,16,2.1,2.1,2.1,2.1z"/>
</g>
<circle fill="#363537" cx="34" cy="34" r="6"/>
</svg>
